<?xml version="1.0" encoding="utf-8"?>
<!-- Generator: Adobe Illustrator 22.0.1, SVG Export Plug-In . SVG Version: 6.00 Build 0)  -->
<svg version="1.1" id="Layer_1" xmlns="http://www.w3.org/2000/svg" xmlns:xlink="http://www.w3.org/1999/xlink" x="0px" y="0px"
	 viewBox="0 0 180.3 99.5" style="enable-background:new 0 0 180.3 99.5;" xml:space="preserve">
<style type="text/css">
	.st0{fill:#FFFFFF;stroke:#000000;stroke-miterlimit:10;}
</style>
<title>svg_individual_elements</title>
<path class="st0" d="M49.6,48.9c3.5,0,16.7,15.2,18.3,14s-10.1-14-10.1-17.8s18.1-14.3,17.6-16.7s-18.3,7.1-23.3,3s-2.7-18.5-6.1-18
	s-0.5,17.9-2.7,21c-2.2,3.1-21.8-3.2-22.7-0.3c-0.9,3,19.7,4.7,20.4,8.5s-7.8,18.5-4.9,20.3S44.9,48.9,49.6,48.9z"/>
<path class="st0" d="M137.1,67.1c3.9-1.5,14.3,4,16.4,1.2c3-4.2-8.9-4.9-12.9-12.7s9.3-16.3,6.2-21.6s-12.7,12.4-18.6,11.5
	s-12.9-14.8-15.5-11.6s7.7,12.9,7,17.5s-19.7,9.2-18.6,14.4s16-3.9,19.7-0.2s3.5,21.8,8,21.8C133.2,87.4,129.1,70.1,137.1,67.1z"/>
</svg>
