<svg id="Layer_1" data-name="Layer 1" xmlns="http://www.w3.org/2000/svg" viewBox="0 0 180.33 99.48"><defs><style>.cls-1{fill:none;stroke:#231f20;stroke-miterlimit:10;}</style></defs><title>svg_individual_elements</title><path class="cls-1" d="M49.58,48.87c3.54,0,16.72,15.16,18.28,14s-10.11-14-10.11-17.76S75.89,30.86,75.37,28.4s-18.27,7.12-23.32,3-2.73-18.53-6.09-18-.52,17.89-2.73,21-21.77-3.24-22.67-.26S40.25,38.89,41,42.65s-7.77,18.53-4.92,20.28S44.92,48.87,49.58,48.87Z"/><path class="cls-1" d="M137.13,67.12c3.89-1.46,14.34,4,16.35,1.16,3-4.24-8.92-4.87-12.85-12.74s9.26-16.32,6.16-21.6-12.72,12.42-18.62,11.55S115.28,30.7,112.66,33.94s7.65,12.86,7,17.45S100,60.56,101.08,65.81s16-3.93,19.66-.22,3.54,21.85,8,21.85S129.12,70.14,137.13,67.12Z"/></svg>