<svg id="Layer_1" data-name="Layer 1" xmlns="http://www.w3.org/2000/svg" viewBox="0 0 132.85 221.22"><defs><style>.cls-1{fill:none;stroke:#231f20;stroke-miterlimit:10;}</style></defs><title>svg_individual_elements</title><path class="cls-1" d="M108.53,201.61c-15.64-11.16,6.7-15.08-34.08-25.55l-1-.24a20.17,20.17,0,0,0,0-11.57c1.35-1.44,2.77-2.93,4.28-4.43C91.6,146,85.25,127.36,76,111.12A64.86,64.86,0,0,0,78.87,102c3.28-14-6.18-27.24-12.6-34.34,9.19-19.63,4.79-40.95,4.59-41.9A3.5,3.5,0,0,0,64,27.26c0,.2,3.73,18.27-3.08,35.15l0,0a3.5,3.5,0,0,0-4.89.37c-1.07-3.4-2.13-6.93-3.14-10.72C46.39,27.67,62.26,18.2,63,17.79a3.5,3.5,0,0,0-3.43-6.1,30.82,30.82,0,0,0-9.88,10C45.77,27.8,42,38.38,46.09,53.82c1.61,6.08,3.35,11.47,5,16.68.79,2.45,1.54,4.79,2.23,7-3.15,7.67-1.59,11.26,3.73,18.19.27,6.83-1.2,13.51-5.58,21.13q-3.15,5.48-5.53,10.63c-1.88-2.26-3.52-4.38-5-6.35,1.91-5.52,2.89-10.61.07-21.91-4.67-18.65-.22-30.24-.16-30.4a3.5,3.5,0,0,0-6.48-2.64c-.22.55-5.43,13.65-.16,34.74,1.4,5.59,1.75,9.18,1.46,12.18-4.29-7.46-4.62-11.3-4.64-11.51a3.5,3.5,0,0,0-7,.07c0,1,.38,7.79,9.08,20.56a78.18,78.18,0,0,0-4.59,19.55c-2.67,22.91-2.88,33.77,6,48.31a35.6,35.6,0,0,0-3.18,11.52C39.73,212.78,124.17,212.76,108.53,201.61Zm-59.37-25.5c-4.72-11.16-5.07-22.49-.89-35.5,1.42,1.49,2.91,3,4.49,4.61,2.14,2.14,4,4.17,5.59,6.11l2.3,17c-1.91,2.34-3.5,4.41-4.77,6.13A29.65,29.65,0,0,0,49.16,176.11Zm23.66-21.24c-.74.74-1.46,1.47-2.16,2.2a57.22,57.22,0,0,0-5.64-8.6l-.29-2.18c-1.29-9.5,2.26-16.54,6.36-24.7.4-.8.81-1.61,1.22-2.44C80.71,135.65,80.78,146.9,72.82,154.87Zm-.76-54.43c-.24,1-.52,2-.8,3C68.4,99,65.94,95.73,63.9,93.1a79.83,79.83,0,0,0-3.14-15.18c.54-1.07,1.19-2.26,2-3.63C68,80.62,74.37,90.63,72.06,100.44ZM57.57,120.35a47.42,47.42,0,0,0,5.94-16c.68,1,1.38,2,2.11,3.18.88,1.39,1.72,2.74,2.51,4.07-1,2.34-2.18,4.59-3.29,6.8-3.47,6.91-6.78,13.52-7.3,21.65Q54,136.52,51,133.29A125.16,125.16,0,0,1,57.57,120.35Zm-22,22.24a75.81,75.81,0,0,1,2.7-13.49q2.13,2.68,4.7,5.64c-6.11,16.44-6,30.79.05,44.74a25.72,25.72,0,0,0-4.17,3.93C32.81,172.12,33.19,162.8,35.54,142.59Z"/></svg>