<?xml version="1.0" encoding="utf-8"?>
<!-- Generator: Adobe Illustrator 22.0.1, SVG Export Plug-In . SVG Version: 6.00 Build 0)  -->
<svg version="1.1" id="Layer_1" xmlns="http://www.w3.org/2000/svg" xmlns:xlink="http://www.w3.org/1999/xlink" x="0px" y="0px"
	 viewBox="0 0 140 190.1" style="enable-background:new 0 0 140 190.1;" xml:space="preserve">
<style type="text/css">
	.st0{fill:#FFFFFF;stroke:#000000;stroke-miterlimit:10;}
</style>
<title>svg_individual_elements</title>
<path class="st0" d="M30.6,63.1c-0.7,1.5-2.9-2.4-4.6-0.5c-1.7,1.9,7.8,12.6,7,14.8s-4.2-3.2-5.2-0.3s8.7,7,8.2,10.3
	c-0.4,3.4-6.4-1.8-6.5,1.4c0.1,3.3,10.4,6.8,10.3,9.1c0.1,2.4-7.8-2.9-7.9,0.1c0.2,3.1,11.1,6.7,11.7,10.8c0.6,2.8-9.3-2.8-10.3-0.8
	c-0.6,2.2,12.9,10.9,11.2,12c-1.5,1.1-6-3.9-7.2-1c-1,3,12.4,10,10,12c-2.3,2-4.7-3.1-5.7,0.5c-1,3.7,9.4,9.8,7.5,10.4s-7-3.5-7.7-1
	c-0.4,1.5,3.7,4.9,6.9,7.8c0,0.8-0.1,1.6-0.1,2.4c-0.8-0.7-1.7-1.3-2.4-1.9c-2.4-1.8-7.6,1-1.4,5c1.3,0.8,2.4,1.9,3.3,3.1
	c1.1,3.5,2.1,7.1,3.2,10.9c0,0.2,0,0.4,0,0.6c-0.4,3.3-6.3-13.3-9.5-9.6c-3.1,3,8.4,18.5,8.3,19c0,0,4.3,2.4,7.8,0
	c3.1-2.1,5.3-8.8,5.1-11c-0.2-1.8-1.7-1.4-3.5-0.4c1.1-1.8,2.1-3.7,3-5.6l0.7-0.1c5.3-0.3,3.5-5.3,1.3-5l-1,0.2
	c-0.1-0.2-0.1-0.3-0.2-0.4c-0.7-0.8-1.7-0.3-2.8,0.9c-1,0.1-1.6-0.1-1.4-0.7c0.6-1.4,10.8-2.5,11.4-5s-4-1.6-4.9-2.9
	s7.7-1.7,8.6-5.2s-2.5-0.4-3.1-3.1s9.8-2.4,10.3-5.4s-3.9-0.9-4.3-2.5s10.2-2.5,10.5-4.5S80,125,81.4,123c2-3,8.9-0.6,10.1-3
	s-4.8-2-3.9-3.8s7.3,0.4,8.6-2s-3.7-1.4-2.6-4.2s7.2-1.1,8-3.8s-3.2-0.3-2.6-2.4s9.3-5.4,9.4-7.8s-2.7-0.5-2.4-2.1s5-0.7,6-3
	s-3.3,1.5-3-0.7s4.7-3.5,5.7-5.4s-3.6,0.8-2.3-1.8s5.4-0.3,5.5-2.5s-3.8,0.4-2.5-1.9s7.2-3.7,5.4-5s-3.1-0.8-1.8-2.7
	s4.2-2.2,3.1-3.4s-0.3-3.8,1.8-5.7s1.8-4.8,0.2-3.8s3.3-8.8,0.3-8.5s-0.8,8.5-2.8,9.9s-2.9-4.3-2.9-1s2.1,5,1.1,6.6
	c-0.9,1.6-1.4-4.4-2.4-2.5c-1,1.9,1.4,4.3,0.3,6.3s-1.8-2.9-3-1.3s1.1,5.3,0.1,7.1s-1.9,3.2-2.8-0.4s-1.4,2.5-1.7,6.5
	s-0.4-0.5-1.9-1.5s1,4.4-0.7,7.1s-3.3,5.2-3.6,1.1s-2.1,1.3-1.6,4.9s-1.5,3.9-1.8,0.4S99,94.6,99.5,98s-3.6,5.5-2.8,2.2
	s-0.6-3.1-1.1-1.6s0.8,5.2-0.9,6s-1.5-1.4-1.3-3.9s-2.3-0.1-1.8,4s-1.4,7.1-1.8,5.4s0.7-7.1-0.2-7.1s-1,7.6-2.4,10.1
	s-4.2,4.1-2.9,1.5s0.4-6-0.7-4s-0.1,5.5-1.2,7.6s-2.8,3.4-1.9,1.1s0.6-5-0.4-4s-1.2,5.9-2.2,7.8s-2.2,5.9-2.2,3.4s1.7-7.3,0.2-6.1
	s-1,6-2,8.2s-3.6,7-3,2.3s1.3-5.5-0.2-4.1c-1.5,1.4-1.4,7.9-2.8,10s-1.3,5.2-3.1,3.6c-1.5-1.4-2,0.4-3.2,4.9
	c-0.9-0.1-1.7,0.2-2.4,0.8c-0.7,0.6-1.6,1.4-2.5,2.2c0-0.5,0.1-1,0.1-1.4c0-0.3,0-0.7-0.1-1c3.4-3.4,7.4-7.3,7.1-8.7
	c-0.5-2.4-5.5,2.2-7.3,1.9s8.4-7.8,7.6-11.2s-3.1,1.8-5.2,0.1s10.3-9.9,9.3-12.5s-4.9,2.4-6.2,1.5s10.4-10.1,9.7-11.9
	s-9,3.8-8.5,1.1c0.8-4,9.7-7.4,9.8-10.2s-6.3,2.1-6.2-0.1s8.2-5.2,8.2-8.1s-4.6,1.6-4.9-1.5s7-6.2,6.4-9s-3.4,2.1-3.9-0.1
	s6.7-11.1,5.5-13.1s-3,1.4-3.5-0.1s4.7-4,4.4-6.7s-2.5,3.6-3.4,1.6s2.9-6.2,2.8-8.4s-3.1,3.1-3.2,0s5.2-3.9,4.1-5.8s-3.5,2.8-3.4,0
	s5.1-7.9,2.7-7.9s-3.5,1.2-3.2-1.3s3-4.7,1.2-5.1s-2.3-3.4-1.3-6.5s-0.8-5.8-1.8-3.9s-1.4-11-4.3-8.8s4,9.1,2.7,11.8
	s-5.5-2.3-3.6,0.9s4.9,3.4,4.9,5.6s-3.9-3.3-3.9-0.9s3.9,3.2,3.8,5.7c0,2.6-3.5-1.5-3.8,0.7s4,4.2,4,6.4s-0.2,4.1-3.1,1.4
	s0,3.2,1.9,6.9s-0.7-0.1-2.8-0.1s3.5,3.3,3.2,6.7s-0.6,6.8-3.1,3.4s-1.4,2.6,1,5.4s0.5,4.4-1.7,1.7s-1,2.8,1.3,5.3s-0.8,7.2-1.8,3.9
	s-2.3-2.2-2.1-0.6s3.7,3.8,2.3,5.7s-2.3-0.1-3.5-2.4s-2.6,1.6,0.2,4.7c2.8,3.1,2.2,6.9,1,5.8s-3.1-6.5-4-5.8s3.1,7.1,2.8,10.2
	s-2.6,6.6-2.5,3.4s-2.9-5.3-3.1-2.7s2.9,4.6,2.7,7.3s-1.4,4.9-1.6,2.3s-2.1-4.6-2.6-2.9s1.8,5.8,1.6,8.1s0.5,6.4-0.9,4.5
	s-2-7.2-3-5.1s2,5.7,2,8.2s-0.7,8.3-2.5,4.4c0-0.5,1.2-1,0.8-1.8c-0.8-1.6-1.5-0.8-1.7-0.5c-0.9-2.3-0.8-2.8-1.7-1
	c-0.5,1-0.1,2.4,0.4,3.9c-0.2,0.4-0.4,0.9-0.7,1.4c-2.1,4.3-2.4-1.6-2.3-4.2s3.4-6.4,2.4-8.5s-1.8,3.3-3.4,5.4s-0.6-2.2-0.7-4.6
	s2.5-6.8,2-8.4s-2.6,0.4-2.9,3.1s-1.6,0.4-1.7-2.4s3.3-4.9,3.2-7.5s-3.4-0.5-3.4,2.8s-2.6-0.3-2.8-3.6s4.5-9.8,3.3-10.6
	s-3.2,4.8-4.7,5.9s-2.1-3,1.2-6.1s1.6-7.2,0.2-4.9s-2.5,4.4-4.3,2.2s2.5-4.1,2.8-5.8s-1.3-3.1-2.5,0.3s-5.1-1.8-2.2-4.3
	s4.2-8,1.6-5.4s-5,0.6-2-2s4.2-8.4,1.2-5.4s-3.5-0.5-3.8-4s6.1-5.8,3.7-6.2s-5.5,3-3.2-0.4s5.3-8.6,2.1-6.4s-3.5,0.2-3.5-1.9
	s4.9-3.3,4.4-5.5s-4.2,1.2-4.3-1.3s4.2-2.5,4.1-4.8s-4.1,2.3-4.2,0.3s3.2-1.8,5.1-4.6s-2.3,1.4-3.8-1.2s5.4-8,2.4-10.3
	c-2.9-2.1-3.1,9.4-4.3,7.5s-3.1,0.4-2,3.2s0.5,5.5-1.4,5.7s1,2.5,1.3,4.9s-1,1.1-3.7,0.7s3.1,5.2,3.1,8S26.4,41,25,42.6
	s5.2,3.3,5,6.4s-3.9-2.7-4-0.5s4.5,7.1,3.4,9s-3.8-4.8-4.3-2.1S31.4,61.6,30.6,63.1z M53.8,124.9c0.4,1,0.6,2.2,0.5,3.3
	c-0.3,1.9-0.9,4.6-1.7,5.4c-0.2-1-0.4-2.1-0.5-3.1C52,129.1,53,127,53.8,124.9z"/>
</svg>
