<svg id="Layer_1" data-name="Layer 1" xmlns="http://www.w3.org/2000/svg" viewBox="0 0 130.5 130.5"><defs><style>.cls-1{fill:none;stroke:#231f20;stroke-miterlimit:10;}</style></defs><title>svg_individual_elements</title><path class="cls-1" d="M23.24,59.8s5.27-.58,11.91-12.3,34.37-25,44.13-25.19c0,0-16.79,8.4-11.13,12.3A96.27,96.27,0,0,0,81.62,42.2c5.69,2.88,4.41,10.37,2.25,13.38-1.43,2-8.1,6.57-4.2,8.91s7.23-6.25,10.55-4.1,1.36,22.26-2.15,22.26-5.08-10.94-7.42-8S78.3,86.75,82,88.7s-1.56,4.69-12.1,1-17-6.44-17-6.44,7.22,6.83,1.95,11.13S40.81,85,40.23,79.13c0,0-13.28-16-17-16.2l1.89-2.12Z"/></svg>