<?xml version="1.0" encoding="utf-8"?>
<!-- Generator: Adobe Illustrator 22.0.1, SVG Export Plug-In . SVG Version: 6.00 Build 0)  -->
<svg version="1.1" id="Layer_1" xmlns="http://www.w3.org/2000/svg" xmlns:xlink="http://www.w3.org/1999/xlink" x="0px" y="0px"
	 viewBox="0 0 132.9 221.2" style="enable-background:new 0 0 132.9 221.2;" xml:space="preserve">
<style type="text/css">
	.st0{fill:#FFFFFF;stroke:#000000;stroke-miterlimit:10;}
</style>
<title>svg_individual_elements</title>
<path class="st0" d="M108.5,201.6c-15.6-11.2,6.7-15.1-34.1-25.6l-1-0.2c1.1-3.8,1.1-7.8,0-11.6c1.3-1.4,2.8-2.9,4.3-4.4
	c13.9-13.8,7.5-32.5-1.7-48.7c1.2-3,2.1-6,2.9-9.1c3.3-14-6.2-27.2-12.6-34.3c9.2-19.6,4.8-41,4.6-41.9c-0.4-1.9-2.3-3.1-4.2-2.7
	c-1.9,0.4-3.1,2.3-2.7,4.2l0,0c0,0.2,3.7,18.3-3.1,35.2l0,0c-1.5-1.2-3.6-1.1-4.9,0.4c-1.1-3.4-2.1-6.9-3.1-10.7
	C46.4,27.7,62.3,18.2,63,17.8c1.7-1,2.2-3.1,1.2-4.8c-1-1.6-3-2.2-4.7-1.3c-4,2.5-7.4,6-9.9,10c-3.9,6.1-7.7,16.7-3.6,32.1
	c1.6,6.1,3.3,11.5,5,16.7c0.8,2.4,1.5,4.8,2.2,7c-3.2,7.7-1.6,11.3,3.7,18.2c0.3,6.8-1.2,13.5-5.6,21.1c-2.1,3.7-3.9,7.2-5.5,10.6
	c-1.9-2.3-3.5-4.4-5-6.3c1.9-5.5,2.9-10.6,0.1-21.9c-4.7-18.7-0.2-30.2-0.2-30.4c0.7-1.8-0.2-3.8-2.1-4.5c-1.7-0.7-3.7,0.2-4.4,1.9
	c-0.2,0.6-5.4,13.7-0.2,34.7c1.4,5.6,1.8,9.2,1.5,12.2c-4.3-7.5-4.6-11.3-4.6-11.5c0-1.9-1.6-3.5-3.5-3.5c-1.9,0-3.5,1.6-3.5,3.5
	c0,1,0.4,7.8,9.1,20.6c-2.4,6.3-3.9,12.9-4.6,19.5c-2.7,22.9-2.9,33.8,6,48.3c-1.7,3.6-2.8,7.5-3.2,11.5
	C39.7,212.8,124.2,212.8,108.5,201.6z M49.2,176.1c-4.7-11.2-5.1-22.5-0.9-35.5c1.4,1.5,2.9,3,4.5,4.6c2.1,2.1,4,4.2,5.6,6.1l2.3,17
	c-1.9,2.3-3.5,4.4-4.8,6.1C53.6,174.7,51.3,175.3,49.2,176.1z M72.8,154.9c-0.7,0.7-1.5,1.5-2.2,2.2c-1.6-3-3.5-5.9-5.6-8.6
	l-0.3-2.2c-1.3-9.5,2.3-16.5,6.4-24.7c0.4-0.8,0.8-1.6,1.2-2.4C80.7,135.6,80.8,146.9,72.8,154.9z M72.1,100.4c-0.2,1-0.5,2-0.8,3
	c-2.9-4.4-5.3-7.7-7.4-10.3c-0.6-5.1-1.6-10.2-3.1-15.2c0.5-1.1,1.2-2.3,2-3.6C68,80.6,74.4,90.6,72.1,100.4z M57.6,120.3
	c2.9-4.9,4.9-10.4,5.9-16c0.7,1,1.4,2,2.1,3.2c0.9,1.4,1.7,2.7,2.5,4.1c-1,2.3-2.2,4.6-3.3,6.8c-3.5,6.9-6.8,13.5-7.3,21.7
	c-2.4-2.4-4.5-4.6-6.5-6.8C52.9,128.9,55.1,124.5,57.6,120.3z M35.6,142.6c0.5-4.6,1.4-9.1,2.7-13.5c1.4,1.8,3,3.7,4.7,5.6
	c-6.1,16.4-6,30.8,0,44.7c-1.5,1.2-2.9,2.5-4.2,3.9C32.8,172.1,33.2,162.8,35.6,142.6L35.6,142.6z"/>
</svg>
