<?xml version="1.0" encoding="utf-8"?>
<!-- Generator: Adobe Illustrator 22.0.1, SVG Export Plug-In . SVG Version: 6.00 Build 0)  -->
<svg version="1.1" id="Layer_1" xmlns="http://www.w3.org/2000/svg" xmlns:xlink="http://www.w3.org/1999/xlink" x="0px" y="0px"
	 viewBox="0 0 190.1 190.1" style="enable-background:new 0 0 190.1 190.1;" xml:space="preserve">
<style type="text/css">
	.st0{fill:#FFFFFF;stroke:#000000;stroke-miterlimit:10;}
</style>
<title>svg_individual_elements</title>
<path class="st0" d="M155.2,49.5c-2.5-0.4-4.7,1.3-5.1,3.8c0,0,0,0,0,0l-1.5,10.2l-4,3V42.4c0-2.5-2-4.5-4.5-4.5s-4.5,2-4.5,4.5
	v37.7l-11.3,18.8l-3.5,2.6l4.8-21.3l1.5-47.1c0.1-2.5-1.9-4.6-4.4-4.6s-4.6,1.9-4.6,4.4L116.7,79l-1.8,8l-1.6-2V74.3
	c0-2.5-2-4.5-4.5-4.5s-4.5,2-4.5,4.5v14l8.1,9.7l-1.2,5.5l-16.3,19.2l-2.2-17.1V85.9l2-6.1L107,64.3V42.4c0-2.5-2-4.5-4.5-4.5
	s-4.5,2-4.5,4.5v18.8l-7,8.7L90.5,67l-1.4-45.1c-0.1-2.5-2.2-4.4-4.6-4.4c-2.5,0.1-4.4,2.2-4.4,4.6l1.5,45.5l2.1,12v26.5l0.1,0.6
	l-2.8-4.2l-8.1-19l-1.4-20.3V32.9c0-2.5-2-4.5-4.5-4.5s-4.5,2-4.5,4.5v30.4l1.5,22.3l9,21.2l11.7,17.6l-13.3-7.2l-15-25.2l-2.3-31.4
	c-0.2-2.5-2.3-4.4-4.8-4.2s-4.4,2.3-4.2,4.8l1.8,24L39.2,75c-1.4-2-4.2-2.6-6.3-1.2s-2.6,4.2-1.2,6.3c0,0.1,0.1,0.1,0.1,0.2l14.6,20
	l5.6,2.4L64.8,124l10.2,5.4c0,0,9.5,17.8,7,35.2s25.8,14.4,26.7,3c0.6-8.7-9.1-24.6-10.1-35.4l7-8.3l25.4-18.8l13.5-22.5v-5.5
	l2.6-1.3l9.8-7.2l2-14C159.2,52.1,157.6,49.8,155.2,49.5z"/>
</svg>
