<?xml version="1.0" encoding="utf-8"?>
<!-- Generator: Adobe Illustrator 22.0.1, SVG Export Plug-In . SVG Version: 6.00 Build 0)  -->
<svg version="1.1" id="Layer_1" xmlns="http://www.w3.org/2000/svg" xmlns:xlink="http://www.w3.org/1999/xlink" x="0px" y="0px"
	 viewBox="0 0 190.1 133.6" style="enable-background:new 0 0 190.1 133.6;" xml:space="preserve">
<style type="text/css">
	.st0{fill:#FFFFFF;stroke:#000000;stroke-miterlimit:10;}
</style>
<title>svg_individual_elements</title>
<path class="st0" d="M91.3,100.5c-1.6-3.1-3.2-10.5-8.6-10.8s-13.6-3.8-15.5-12.1s-7.3-24.1-21.9-24.4s-6.3-11.1,0-11.1s1.9-7,6.3-7
	s8.7,1.6,12.6-1.3s20.8-4.4,23.3,3.8s0.3,25.7,0.3,25.7s0.3-8.6,3.5-9.2s10.5,0.3,14-5.1s10.5-9.5,17.5-10.8c7-1.3,5.7-5.1,11.1-5.1
	s13-0.6,14.6,1.3s2.2,7.6-2.2,13s4.8,2.5,4.8,7.6s0,6.3-2.5,10.9s-8.6,9.1-14.3,11.3s-7.1,8.2-15.3,11c-2.1,0.7-2.3,5-4.7,7.1
	C107.2,101.6,94.1,105.9,91.3,100.5z M86.6,35.8c0,0,3.2,7.6-13.9,10.8s-5.4,17.7,1,17.9s4.1,4.6,1.7,7.1s-5.7,14.6,0,12.9
	S78.8,75.3,91,76s5.2-3.3,16.9-0.4s11.5-1.5,15.8-1.2s7.5,5.4,3.1,8.8 M132.5,78.1c3.9-9.8-1.3-5.4,3.7-16.3
	c6-13.1,0.4-6.9-13.1-7.9s0.3,2.3-13.6,6.3c-8.2,2.3-15,8.1-18.5,15.8 M76.8,65.3l10.6,10.8 M63.8,54.8l2.6,19.9"/>
</svg>
