<svg id="Layer_1" data-name="Layer 1" xmlns="http://www.w3.org/2000/svg" viewBox="0 0 144.73 190.06"><defs><style>.cls-1{fill:none;stroke:#231f20;stroke-miterlimit:10;}</style></defs><title>svg_individual_elements</title><path class="cls-1" d="M122.5,32a3,3,0,0,0-3.61,2.23,62.69,62.69,0,0,1-2.06,6.85c.89-9.34,1-19.85-2.45-28.41a5,5,0,0,0-9.26,3.78c3.72,9.1,2.06,22.09.72,32.53a100.85,100.85,0,0,0-1.09,11.62c0,.13-.18,2.41-5.54,9A49.6,49.6,0,0,1,101.09,60c1.25-4.74,2.55-9.65,1.62-15.11-1.74-10.18,1-20.61,1-20.79a3,3,0,0,0-5.8-1.55c-.13.48-3.11,11.81-1.14,23.35.7,4-.26,7.84-1.4,12.18-8-17.5-6.93-28.92-6.92-29a3,3,0,0,0-6-.65c-.07.66-1.6,16.15,10.88,39.11a30.69,30.69,0,0,0,.15,8.58c-1.61,1.73-3.46,3.64-5.58,5.74-1.78,1.75-3.62,3.52-5.49,5.27a23,23,0,0,1-3.41-10.18c-.71-8.73,5.32-17.61,5.39-17.7a3,3,0,0,0-4.94-3.41,42.41,42.41,0,0,0-5.17,11.1c-.13-2.22-.16-4.79,0-7.79a158.94,158.94,0,0,1,2-19.64,3,3,0,0,0-5.91-1.05c-1.18,6.59-6.33,39,4.43,46.77a30.39,30.39,0,0,0,3.14,6c-6.2,5.62-12.45,10.91-17.65,15.12-.24-.59-.51-1.21-.79-1.86,8.91-21.63,3.2-35.25,2.95-35.83A3,3,0,0,0,57,71.06c0,.11,4,9.93-1.1,26-.56-1-1.16-2-1.78-3-4.13-6.62-4-8,2.42-25.24C63.39,50.37,54.32,38.48,53.93,38a3,3,0,1,0-4.72,3.7c.07.08,5.54,7.27,3.35,19.08-1.75-6.18-4.07-12.19-4.8-14A3,3,0,1,0,42.18,49c2.79,7,7,19.67,6.44,24C44.28,85.14,44.06,89.2,49,97.17a85.62,85.62,0,0,1,6.45,13.16,24.06,24.06,0,0,0-4.22,5,130.16,130.16,0,0,0-10.91-12.82A22.94,22.94,0,0,1,36,95.78a1.17,1.17,0,0,1-.05-.11c-3.77-8.53-4.12-19.07-4.12-19.21a3,3,0,0,0-3.08-2.92,3,3,0,0,0-2.92,3.08,66.05,66.05,0,0,0,1,9.15C22.82,77.4,24,67.51,24,67.32A3,3,0,0,0,18,66.56a45.43,45.43,0,0,0,.52,12.76c1.65,9,5.93,15.77,12.41,19.8a27.82,27.82,0,0,0,5.09,7.53,126.84,126.84,0,0,1,12.28,14.83C46.16,128.12,46,136.36,48,146a103.58,103.58,0,0,0,7.31,22,5,5,0,0,0,4.5,2.82,5.08,5.08,0,0,0,2.17-.49,5,5,0,0,0,2.33-6.68,95.47,95.47,0,0,1-6.54-19.85c-3.24-16.13,1-23.37,5.13-26.62A405.68,405.68,0,0,0,95.18,88.75c17.35-17.2,19.57-24.07,19.57-28.13,0-1.22.11-2.69.28-4.37,5.89-5.61,9-17.81,9.7-20.63A3,3,0,0,0,122.5,32Z"/></svg>