<?xml version="1.0" encoding="utf-8"?>
<!-- Generator: Adobe Illustrator 22.0.1, SVG Export Plug-In . SVG Version: 6.00 Build 0)  -->
<svg version="1.1" id="Layer_1" xmlns="http://www.w3.org/2000/svg" xmlns:xlink="http://www.w3.org/1999/xlink" x="0px" y="0px"
	 viewBox="0 0 100.3 100.3" style="enable-background:new 0 0 100.3 100.3;" xml:space="preserve">
<style type="text/css">
	.st0{fill:#FFFFFF;stroke:#000000;stroke-miterlimit:10;}
</style>
<title>svg_individual_elements</title>
<path class="st0" d="M33.9,80.7c0,0,15.7-3.9,21-10c0,0-7.3,8.4,0,10S63.1,64.6,65.3,63s7.5-10.9,9.7-10.9c0,0,2.7-3.1,0-3.1
	s-4.8,0.5-6.3-1.5S60,32.7,52.3,30s-26.7-1.5-26.7-1.5s10.2,4.1,10.2,6.5s-10.6,8.4-10.2,11.6S32.2,57,31.7,60s-7.5-2.1-7.5-2.1
	s-1.7,9.6,3.1,16c0,0,1.9-7.7,4.3-7.1S33.9,80.7,33.9,80.7z"/>
</svg>
