<svg id="Layer_1" data-name="Layer 1" xmlns="http://www.w3.org/2000/svg" viewBox="0 0 190.06 218.44"><defs><style>.cls-1{fill:none;stroke:#231f20;stroke-linejoin:round;}</style></defs><title>svg_individual_elements</title><path class="cls-1" d="M99.53,210.21c20.55,3.19,14.81-10.74,29.3-26.53s1.63-6.52,8.47-23.93S139,130.12,139,130.12c-12.76,13.84-5.79,20.18-9.7,29.46s-8.63,17.26-9.13,24.58c-.13,2-3.26,4.86-7.33,8-.13-6.28-2.15-14-2.82-19.4-1.16-9.26,6.36-11.86,5.38-19.09s11.11-14.46,11.11-24.87,9-10.71,6.65-19.38S138.1,91.77,139,78.18s-8.68-14.46-8.68-14.46C119,85.41,141,82.23,126,99.58s-2.89,18.8-10.12,25.46c-3.32,3-5.35,4.94-6.44,7-1.25-5.22-4.7-7.23-3.89-11.57,1.22-6.47,8.39-4.86,6.62-23s4.83-6.71,5.84-20,4.58-13.65.73-24.16,3.39-5.11.56-14,1.08-23-3.83-26.68c-9-6.68-10.32-4.45-10.32-4.45s-4.45,4.86,0,15.37c1.67,4-.91,9.55,0,15,.65,3.87,2.16,8.22,1.87,12.12-.37,5.11-1.94,9.15-.66,13.15C110,75,92.61,60.68,97.82,76s5.19,7.08-.4,17.39-3.73,15-2,27.89c1,7.84-4.68,5.46-8.32,13.74.42-8.54,1.29-18-.9-21.76-3.35-5.8.67-21.86.44-28.78s-8.25-17-4.94-31.68a86.89,86.89,0,0,0,.93-29.23C71.45,41,78.59,37,73.46,52S75.25,61.76,71.9,74s3.57,26.11-1.34,40.16a26.14,26.14,0,0,0-1.62,9.44c-1.93-1.59-3.44-3.28-3.73-5.2-.9-5.8-3.13-17.62-8.93-19.41S54.94,87.2,51.15,84.3s.67-9.15,0-14.5S46,56,46,56c-15.39,20.53-2,19.19-2.68,28.56S42.67,88.76,46,98.13s-4.46,8.92,2.45,16.92,7.14,10.3,7.37,17.88,9.81,8,11.37,14c1.4,5.3,1.74,9.05,5.46,14.42a146.75,146.75,0,0,1,.61,19.46c-6.17-1.82-11.49-5.74-11.62-11-.7-27.23-7.83-11.62-10.4-25.89C47.77,124.43,41.78,120,41.78,120s-3.35,10.71-1.11,18.74,3.12,11.83,3.12,19.19,6.8,17.35,10.37,17.79S61,185.81,63,189.6,82.2,203.42,89.3,206.78A50.23,50.23,0,0,0,99.53,210.21Z"/></svg>