<?xml version="1.0" encoding="utf-8"?>
<!-- Generator: Adobe Illustrator 22.0.1, SVG Export Plug-In . SVG Version: 6.00 Build 0)  -->
<svg version="1.1" id="Layer_1" xmlns="http://www.w3.org/2000/svg" xmlns:xlink="http://www.w3.org/1999/xlink" x="0px" y="0px"
	 viewBox="0 0 190.1 190.1" style="enable-background:new 0 0 190.1 190.1;" xml:space="preserve">
<style type="text/css">
	.st0{fill:#FFFFFF;stroke:#000000;stroke-miterlimit:10;}
</style>
<title>svg_individual_elements</title>
<path class="st0" d="M147.6,64.6c-0.6-0.9-1.9-1.1-2.8-0.5c0,0,0,0,0,0c-3.8,2.5-8,4.2-12.5,4.9c-0.1-0.8-0.5-1.5-1-2.1
	c7.1-1.3,14.5-3.7,16.5-7.6c0.6-0.9,0.3-2.2-0.7-2.7c-0.9-0.6-2.2-0.3-2.7,0.7c-0.1,0.1-0.1,0.2-0.1,0.3c-1.5,3-11,5.3-19.9,6.4
	c-0.5-0.1-0.9-0.2-1.4-0.2c7.8-4.5,12.8-12.6,13.1-13c0.6-0.9,0.3-2.2-0.7-2.8s-2.2-0.3-2.8,0.7c-2.4,3.7-5.3,6.9-8.7,9.7
	c1.4-3.6,2.5-7.2,3.2-9.6c0.2-1.1-0.4-2.1-1.5-2.4c-1-0.2-2,0.3-2.3,1.3c-1.3,4.8-3,9.5-5.2,14c-1,0.4-2,0.6-3,0.8
	c-0.3,0-0.6,0.2-0.8,0.3c2.7-13.7,11.7-19.9,11.8-20c0.9-0.6,1.1-1.9,0.5-2.8c-0.6-0.9-1.8-1.1-2.7-0.6c-0.5,0.3-11.1,7.5-13.8,24
	l-1.3,0.1c-0.6-3.1-0.3-6.3,0.8-9.3c3.6-8.8-0.2-17.2-0.3-17.6c-0.4-1-1.6-1.5-2.6-1.1c-1,0.4-1.5,1.6-1.1,2.6c0,0.1,0,0.1,0.1,0.2
	c0,0.1,3.2,7.2,0.2,14.4c-1.4,3.5-1.8,7.4-1.1,11.1c-1,0.1-2.1,0.2-3.1,0.3c-0.7-8.5,0.5-22.7,0.6-22.9c0.1-1.1-0.7-2.1-1.8-2.2
	c-1.1-0.1-2.1,0.7-2.2,1.8c-0.1,0.7-1.2,13.8-0.6,22.7c-0.7-1.8-1.2-3.6-1.4-5.5c-0.5-3.3-1.1-6.9-3.2-9.6
	c1.7-6.8,3.6-12.5,3.6-12.6c0.4-1-0.2-2.2-1.3-2.5c-1-0.4-2.2,0.2-2.5,1.3l0,0c-0.1,0.4-1.7,5-3.2,10.9C85.4,42.1,88,33.1,88,32.9
	c0.3-1.1-0.2-2.2-1.3-2.5c-1.1-0.3-2.2,0.2-2.5,1.3c0,0,0,0.1,0,0.1c-0.6,2.3-1,4.6-1,7c-0.3-0.2-0.4-0.4-0.5-0.4
	c-0.9-0.7-2.1-0.6-2.8,0.3c-0.7,0.9-0.6,2.1,0.3,2.8c0,0,3.2,2.7,1.9,6c-0.2,0.6-0.5,1.2-0.7,1.8c-4.3-5.8-2.9-13-2.8-13.3
	c0.2-1.1-0.6-2.1-1.7-2.3c-1-0.1-1.9,0.5-2.2,1.4c0,0.1-2.2,11,5.3,18.6c-1.7,6.2-1.5,10.6-0.7,13.6c-1.4-2-3.3-4.5-5.1-7
	c-2.4-3.2-2.3-14.9-1.6-21.4c0.1-1.1-0.7-2.1-1.8-2.2c-1.1-0.1-2.1,0.7-2.2,1.8C68.4,40.2,66.8,57,71,62.6c1.7,2.4,3.5,4.8,4.9,6.8
	c-0.6,0.2-1.2,0.3-1.8,0.5c-0.6-2.8-1.8-6.1-4.5-8.2s-3.3-8.7-3.2-10.9c0-1.1-0.9-2-2-2l0,0c-1.1,0-2,0.9-2,2
	c0,1.1-0.1,10.5,4.8,14.2c1.7,1.3,2.6,3.9,3.1,6.1c-2.2,0.7-4.4,1.4-6.5,2.1c-1.3-2.1-3.2-5.2-5.5-9.4c-4.5-8.1,0-17.8,0.1-17.9
	c0.5-1,0.1-2.2-0.9-2.7s-2.2-0.1-2.7,0.9l0,0c-0.2,0.5-5.5,11.7,0.1,21.6c2.1,3.8,3.9,6.7,5.2,8.8c-1.2,0.4-2.3,0.9-3.5,1.4
	c-12.2-10.4-9-21.3-8.9-21.8c0.3-1.1-0.2-2.2-1.3-2.5c-1.1-0.3-2.2,0.2-2.5,1.3c-0.2,0.6-4,12.9,8.7,24.8l-1.6,0.8
	c-0.8-0.8-1.8-1.5-2.8-1.9c-0.4-0.2-0.9-0.3-1.3-0.4C41.6,64.8,34,62.6,33.7,62.5c-1.1-0.3-2.2,0.3-2.5,1.4
	c-0.3,1.1,0.3,2.2,1.4,2.5c0.2,0.1,5.6,1.7,9.7,10.3c-0.9,0.4-1.7,0.8-2.5,1.4c-5.6,3.9-12.2,6-18.9,6c-1.1-0.1-2,0.8-2.1,1.9
	c-0.1,1.1,0.8,2,1.9,2.1c7.7,0,15.2-2.3,21.5-6.7c0.6-0.4,1.2-0.7,1.8-1c0.2,0.5,0.5,0.9,0.7,1.4c-0.9,0.5-1.7,1.1-2.5,1.6
	c-10.7,2.3-15.8,17.1-16,17.8c-0.3,1,0.2,2.2,1.3,2.5c0.2,0.1,0.4,0.1,0.6,0.1c0.9,0,1.6-0.5,1.9-1.4c1.5-4,3.6-7.7,6.4-10.9
	c-4,5.5-2.6,12.9-2.5,13.2c0.2,0.9,1,1.6,2,1.6c0.1,0,0.3,0,0.4,0c1.1-0.2,1.8-1.3,1.5-2.4c0-0.1-1.2-6.1,1.9-10.2
	c0.4-0.5,0.8-1,1.3-1.4c-2.5,5.4,2.7,13.3,3.4,14.2c0.4,0.5,1,0.9,1.7,0.9c1.1,0,2-0.9,2-2c0-0.4-0.1-0.8-0.3-1.1
	c-1.9-2.7-4.3-7.9-3-10.4c0.6-1.2,2.3-1.7,4-1.9c5.1,5,10.6,12.5,10.6,21.4c0,16.7-6.8,47.3,15.3,47.3s66.7-0.9,66.7-16.7
	s-14-23.4-14.9-38.3c-0.8-13.7-7.7-12.1,1.6-27.5c0.8,0,1.5,0.2,2.1,0.7c1.7,1.2,2.4,4.3,2.2,8.9c-0.1,1.1,0.8,2.1,1.9,2.1h0.1
	c1.1,0,1.9-0.8,2-1.9c0.4-6.1-0.9-10.3-3.8-12.4c-0.6-0.4-1.4-0.8-2.1-1c0.2-0.3,0.4-0.6,0.6-0.8s0.3-0.4,0.4-0.6
	c5.7-0.6,11.1-2.6,15.9-5.8C148.1,66.8,148.3,65.5,147.6,64.6C147.7,64.6,147.7,64.6,147.6,64.6z M83.6,67.4
	c-0.8-1.9-1.5-5.4-0.2-11.1c0.4,0.2,0.7,0.5,1.1,0.7c0.8,0.4,1.6,0.9,2.3,1.5c-0.4,2.8-0.6,5.6-0.5,8.3
	C85.4,67.1,84.5,67.2,83.6,67.4z M90.2,66.1c0-1.2,0-2.5,0.1-3.7c0.3,0.5,0.5,1,0.6,1.5c0.1,0.7,0.2,1.4,0,2.1L90.2,66.1z
	 M91.9,57.7c-0.2-0.3-0.5-0.5-0.8-0.8c0.1-0.5,0.2-1.1,0.3-1.7C91.6,56,91.7,56.8,91.9,57.7z M88.2,49.8c0.1,0,0.1,0.1,0.2,0.2
	c-0.3,1.4-0.6,2.8-0.9,4.2c-0.3-0.2-0.7-0.4-1.1-0.7c-0.7-0.4-1.3-0.8-1.9-1.2c0.3-1.1,0.8-2.2,1.2-3.4c0.1-0.3,0.2-0.6,0.3-0.9
	C86.6,48.7,87.4,49.3,88.2,49.8z"/>
</svg>
