<?xml version="1.0" encoding="utf-8"?>
<!-- Generator: Adobe Illustrator 22.0.1, SVG Export Plug-In . SVG Version: 6.00 Build 0)  -->
<svg version="1.1" id="Layer_1" xmlns="http://www.w3.org/2000/svg" xmlns:xlink="http://www.w3.org/1999/xlink" x="0px" y="0px"
	 viewBox="0 0 140.2 190.1" style="enable-background:new 0 0 140.2 190.1;" xml:space="preserve">
<style type="text/css">
	.st0{fill:#FFFFFF;stroke:#000000;stroke-miterlimit:10;}
</style>
<title>svg_individual_elements</title>
<path class="st0" d="M113.9,55.4c-0.4-2.7-2.6,3.7-3.7,1.6s3-6.4,2.9-8.6s-3.3,3.1-3.5,0s5.5-3.9,4.3-5.8s-3.7,2.7-3.7,0
	s5.2-7.6,2.7-7.6s-3.7,1.2-3.4-1.2s3-4.3,1.2-4.7s-2.5-3-1.4-5.8s-0.9-5-2-3.3s-1.5-9.1-4.4-7.1s4,7.4,2.8,9.8S100,21,102,23.7
	s5.1,2.9,5.1,4.8s-4-2.9-4-0.6s4,2.7,4,5.1s-3.7-1.3-4,0.8c-0.3,2.1,4.3,3.8,4.3,5.9s-0.1,3.9-3.3,1.4s0,3,2.1,6.7s-0.8-0.1-3,0
	s3.8,3.1,3.5,6.7s-0.5,7-3.4,3.7s-1.6,2.7,1.2,5.6c2.7,2.9,0.7,4.7-1.8,1.8s-1,3,1.6,5.8s-0.8,8-2,4.3s-2.6-2.3-2.3-0.5
	s4.2,4,2.6,6.3s-2.6,0-3.9-2.5s-2.9,1.8,0.3,5.2s2.6,7.7,1.2,6.5s-3.5-7.2-4.6-6.4S99,92,98.7,95.5S96,103,96,99.4s-3.3-5.9-3.4-3
	s3.3,5.1,3.1,8.1s-1.4,5.5-1.7,2.6s-2.3-5.1-2.9-3.3s2.1,6.4,2,9s0.8,7-0.8,5s-2.3-8-3.4-5.6s2.3,6.3,2.3,9s-0.4,9-2.5,4.6
	c-0.3-0.5-0.5-1-0.7-1.5c0.6-1.6,0.9-3.2,0.5-4.2c-0.9-2-0.8-1.4-1.7,1.1c-0.2-0.3-0.4,0.1-0.8,1.1c-0.2,0.4-0.2,0.9-0.2,1.3
	c-2,4.2-2.4-1.9-2.5-4.7s3.3-6.7,2.2-9s-1.8,3.6-3.3,5.7s-0.7-2.3-0.9-4.9s2.3-7.2,1.8-9.1s-2.6,0.4-2.8,3.3s-1.6,0.4-1.8-2.6
	s3.2-5.3,3-8.2s-3.4-0.4-3.3,3.1s-2.5-0.3-2.8-3.8s4.1-10.7,3.1-11.4s-3,5.3-4.4,6.5s-2-3.1,1-6.6s1.4-7.7,0.2-5.2s-2.3,4.7-3.9,2.5
	s2.3-4.5,2.5-6.3s-1.2-3.1-2.3,0.6s-4.6-1.5-2-4.3s3.9-8.7,1.5-5.8c-2.4,2.9-4.6,1.1-1.9-1.8s3.9-9.1,1.1-5.6s-3.2-0.1-3.5-3.6
	s5.6-6.6,3.4-6.7s-5,3.8-3,0.1s5.1-9.2,2-6.7s-3.2,0.7-3.3-1.4s4.6-3.9,4.2-6s-4,1.7-4.1-0.7s4-3,3.9-5.2s-4,2.7-4,0.7
	s3.1-2.1,5-4.9s-2.3,1.5-3.7-0.9s5.5-7.9,2.6-9.8s-3.2,8.9-4.3,7.3s-3,0.6-1.9,3.3s0.4,5.4-1.4,5.8s1,2.3,1.3,4.7s-0.9,1.2-3.4,1.2
	s2.8,4.8,2.9,7.5s-2.5-1.8-3.7,0.1s4.6,2.5,4.4,5.7s-3.4-2.2-3.5,0.1s4,6.5,3,8.6s-3.3-4.2-3.7-1.5s5.5,5.4,4.8,7s-2.5-2-3.9,0.1
	s6.8,11.9,6.1,14.2s-3.7-2.9-4.4,0.1s7.6,6.5,7.2,10.1s-5.7-1.6-5.6,1.7s9.3,6.7,9.3,9.2s-7.1-3-7,0.1s10.1,7,10.9,11.4
	c0.6,3-8.8-3.2-9.5-1.1s12.1,11.9,10.7,13s-5.9-4.5-6.9-1.5s12.2,11.3,10,13.1s-4.8-3.6-5.6,0.1c-0.8,3.7,9.7,10.7,7.9,11.1
	s-7.1-4-7.7-1.6c-0.3,1.5,3.9,5.2,7.3,8.3c-0.1,0.3-0.1,0.7-0.1,1c0,0.4,0,0.8,0.1,1.3c-0.9-0.7-1.8-1.4-2.5-2
	c-0.7-0.5-1.6-0.8-2.5-0.6c-1.2-4.4-2.8-7.7-2.9-5.4s-2.3-0.7-3.7-2.8s-1.3-8.9-2.9-10.4s-0.8-0.5-0.2,4.4s-2.2-0.1-3.3-2.4
	s-0.7-7.4-2.3-8.8s0.3,3.9,0.3,6.5c-0.1,2.6-1.3-1.6-2.5-3.7s-1.5-7.3-2.5-8.5s-1.4,1.8-0.4,4.3s-0.8,1.2-2.1-1.2s-0.2-6.2-1.4-8.5
	s-2.2,1.5-0.8,4.4s-1.6,1.1-3.2-1.7s-1.7-11.1-2.7-11.1s0.3,6.1-0.1,7.9s-2.4-1.5-2-6s-2.2-7.2-2-4.5s0.5,5.2-1.3,4.3s-0.4-5-1-6.7
	s-2-1.9-1.2,1.8s-3.3,1.3-2.9-2.5s-1.1-9.4-1.4-5.6s-2.3,3.4-1.8-0.5s-1.2-9.7-1.6-5.3s-1.9,1.7-3.5-1.1s0.8-8.6-0.6-7.5
	s-1.5,5.9-1.8,1.7s-0.6-10.5-1.5-6.7s-1.7,2.4-2.5,0.7s1.2-5.8,0.2-7.3s-1.8,3.6-2.7,1.6s1.2-4.7,0.3-6.5s-1.3,4.4-2.1,2.8
	s1-3.5,1.1-6.9s-0.8,2.5-2.5,1.3s0.1-9.6-2.4-9.6s1.6,9.2,0.3,8.4S13,60,14.7,61.7s2.4,4.2,1.5,5.6s1.5,1.4,2.6,3.2
	s-0.1,1.5-1.5,2.9s3.6,2.4,4.8,4.7s-2.2-0.1-2.2,2.1s3.8-0.4,4.9,2.3s-2.9,0.1-2.1,2s5,3.2,5.2,5.5s-3.7-1.7-2.8,0.8
	s5.4,1.5,5.7,3.2s-2.4-0.3-2.4,2.2s8.8,6.2,9.3,8.5s-3.4-0.4-2.6,2.5s7.1,1.3,8.3,4.4s-4,1.8-2.7,4.5s8.2,0.6,9.2,2.6
	s-5.5,1.4-4.2,4s8.8,0.3,11.1,3.6c1.5,2.2-6.6,2.1-6.2,4.3s12,3.3,11.6,5s-5.3-0.5-4.7,2.5s11.8,2.7,11.2,5.5s-4.3-0.4-3.3,3.1
	s10.1,3.6,9.1,4.9s-5.9,0.5-5.2,2.9s11.4,3.1,11.9,4.4c0.2,0.6-0.4,0.7-1.4,0.7c-1.1-1-2.2-1.5-2.9-0.7c-0.1,0.1-0.2,0.3-0.3,0.4
	l-1-0.1c-2.3-0.2-4.3,4.4,1.2,4.6c0.2,0,0.5,0,0.7,0.1c0.9,1.7,1.9,3.3,3,4.9c-1.8-0.8-3.3-1.1-3.6,0.5c-0.3,2,1.8,7.5,4.8,9.3
	c3.4,2,7.8,0,7.8,0s12.2-14.5,9.1-17.5s-9.7,12.5-9.9,9.4v-0.6l3.6-10.2c1-1.2,2.2-2.3,3.4-3.2c6.3-4.4,1.3-6.7-1.2-4.7
	c-0.7,0.6-1.6,1.3-2.5,2c0-0.8,0-1.6,0-2.4c3.3-3.1,7.4-6.9,7.1-8.4c-0.6-2.5-5.8,2.1-7.7,1.7s8.6-7.6,7.7-11.2s-3.3,1.8-5.6,0
	s10.7-10.2,9.6-13.2s-5.3,2.6-6.8,1.6s11.2-11.1,10.4-13.2s-10,4.3-9.5,1.3c0.8-4.4,10.7-8.5,10.7-11.6s-7.1,2.5-7.1,0
	s9.2-6.1,9.2-9.4s-5.2,2-5.6-1.6s7.8-7.2,7.1-10.2s-3.8,2.3-4.4,0s7.3-12.3,5.9-14.4s-3.3,1.6-3.9,0S114.3,58.2,113.9,55.4z
	 M88.5,133.3c-0.1,1-0.3,2.2-0.6,3.3c-0.8-0.8-1.3-3.5-1.6-5.5c-0.1-1.2,0.2-2.4,0.6-3.5C87.8,129.6,88.7,131.8,88.5,133.3z"/>
</svg>
