<svg id="Layer_1" data-name="Layer 1" xmlns="http://www.w3.org/2000/svg" viewBox="0 0 100.28 100.28"><defs><style>.cls-1{fill:none;stroke:#231f20;stroke-miterlimit:10;}</style></defs><title>svg_individual_elements</title><path class="cls-1" d="M33.94,80.71s15.7-3.86,21-10c0,0-7.32,8.38,0,10S63.08,64.61,65.34,63,72.8,52.1,75.06,52.1c0,0,2.66-3.06,0-3.06s-4.79.53-6.26-1.46S60,32.68,52.3,30s-26.74-1.46-26.74-1.46,10.25,4.13,10.25,6.52S25.16,43.45,25.56,46.65,32.21,57,31.68,60s-7.45-2.13-7.45-2.13-1.73,9.58,3.06,16c0,0,1.86-7.72,4.26-7.05S33.94,80.71,33.94,80.71Z"/></svg>