<svg id="Layer_1" data-name="Layer 1" xmlns="http://www.w3.org/2000/svg" viewBox="0 0 134.52 134.52"><defs><style>.cls-1{fill:none;stroke:#231f20;stroke-miterlimit:10;}</style></defs><title>svg_individual_elements</title><path class="cls-1" d="M59.28,83A13.21,13.21,0,1,1,72.49,96.19,13.2,13.2,0,0,1,59.28,83Zm17-5.41c1.82,1.53,5.31,2.33,4-.95s-5.18-4-7.21-3.78C69.49,73.16,74.41,76,76.23,77.57Zm3.94,7.73c.13,1.81,3,1.55,3.13-1.51s-2.09-3.11-2.7-1.69A6.94,6.94,0,0,0,80.17,85.3Z"/><path class="cls-1" d="M76.59,111.62a7,7,0,1,1,7,7A7,7,0,0,1,76.59,111.62Zm9-2.87c1,.81,2.82,1.24,2.13-.51s-2.76-2.11-3.84-2C82,106.4,84.64,107.93,85.61,108.75Zm2.09,4.11c.07,1,1.59.82,1.67-.8s-1.11-1.66-1.44-.9A3.89,3.89,0,0,0,87.7,112.86Z"/><path class="cls-1" d="M33.25,39.59A21.77,21.77,0,1,1,55,61.36,21.76,21.76,0,0,1,33.25,39.59Zm27.93-8.92c3,2.53,8.76,3.85,6.6-1.56s-8.54-6.54-11.88-6.24C50.07,23.41,58.18,28.15,61.18,30.67Zm6.5,12.74c.21,3,4.91,2.55,5.15-2.49s-3.44-5.12-4.45-2.78A11.83,11.83,0,0,0,67.68,43.41Z"/></svg>