<?xml version="1.0" encoding="utf-8"?>
<!-- Generator: Adobe Illustrator 22.0.1, SVG Export Plug-In . SVG Version: 6.00 Build 0)  -->
<svg version="1.1" id="Layer_1" xmlns="http://www.w3.org/2000/svg" xmlns:xlink="http://www.w3.org/1999/xlink" x="0px" y="0px"
	 viewBox="0 0 144.7 190.1" style="enable-background:new 0 0 144.7 190.1;" xml:space="preserve">
<style type="text/css">
	.st0{fill:#FFFFFF;stroke:#000000;stroke-miterlimit:10;}
</style>
<title>svg_individual_elements</title>
<path class="st0" d="M122.5,32c-1.6-0.4-3.2,0.6-3.6,2.2c0,0,0,0,0,0c-0.6,2.3-1.2,4.6-2.1,6.8c0.9-9.3,1-19.9-2.4-28.4
	c-1-2.6-4-3.8-6.5-2.7c-2.6,1-3.8,4-2.7,6.5c3.7,9.1,2.1,22.1,0.7,32.5c-0.6,3.8-1,7.7-1.1,11.6c0,0.1-0.2,2.4-5.5,9
	c0.3-3.3,0.9-6.5,1.9-9.6c1.2-4.7,2.6-9.7,1.6-15.1c-1.7-10.2,1-20.6,1-20.8c0.4-1.6-0.5-3.2-2.1-3.7c-1.6-0.4-3.2,0.5-3.7,2.1l0,0
	c-0.1,0.5-3.1,11.8-1.1,23.4c0.7,4-0.3,7.8-1.4,12.2c-8-17.5-6.9-28.9-6.9-29c0.2-1.7-1-3.1-2.7-3.3c-1.7-0.2-3.1,1-3.3,2.7l0,0
	c-0.1,0.7-1.6,16.2,10.9,39.1c-0.4,2.9-0.3,5.7,0.2,8.6c-1.6,1.7-3.5,3.6-5.6,5.7c-1.8,1.8-3.6,3.5-5.5,5.3
	c-1.9-3.1-3.1-6.6-3.4-10.2c-0.7-8.7,5.3-17.6,5.4-17.7c0.9-1.4,0.6-3.2-0.8-4.2c-1.4-0.9-3.2-0.6-4.2,0.8c-2.3,3.4-4,7.2-5.2,11.1
	c-0.1-2.2-0.2-4.8,0-7.8c0.3-6.6,0.9-13.1,2-19.6c0.3-1.6-0.8-3.2-2.4-3.5c-1.6-0.3-3.2,0.8-3.5,2.4c-1.2,6.6-6.3,39,4.4,46.8
	c0.8,2.1,1.9,4.1,3.1,6c-6.2,5.6-12.4,10.9-17.7,15.1c-0.2-0.6-0.5-1.2-0.8-1.9c8.9-21.6,3.2-35.2,3-35.8c-0.8-1.4-2.7-1.9-4.1-1
	c-1.2,0.7-1.7,2.1-1.3,3.4c0,0.1,4,9.9-1.1,26c-0.6-1-1.2-2-1.8-3c-4.1-6.6-4-8,2.4-25.2c6.8-18.5-2.2-30.3-2.6-30.8
	c-1-1.3-2.9-1.6-4.2-0.6c-1.3,1-1.6,2.9-0.6,4.2c0,0,0.1,0.1,0.1,0.1c0.1,0.1,5.5,7.3,3.3,19.1c-1.8-6.2-4.1-12.2-4.8-14
	c-0.6-1.5-2.4-2.3-3.9-1.7c-1.5,0.6-2.3,2.4-1.7,3.9c2.8,7,7,19.7,6.4,24c-4.3,12.1-4.6,16.2,0.4,24.2c2.5,4.2,4.7,8.6,6.5,13.2
	c-1.6,1.5-3,3.1-4.2,5c-3.4-4.5-7-8.8-10.9-12.8c-1.8-2-3.3-4.3-4.3-6.7c0,0,0-0.1,0-0.1c-3.8-8.5-4.1-19.1-4.1-19.2
	c0-1.7-1.4-3-3.1-2.9c0,0,0,0,0,0c-1.7,0-3,1.4-2.9,3.1c0,0,0,0,0,0c0.1,3.1,0.5,6.1,1,9.2c-4-8.4-2.8-18.3-2.8-18.5
	c0.2-1.7-1-3.2-2.6-3.4c-1.7-0.2-3.2,1-3.4,2.6l0,0c-0.4,4.3-0.3,8.6,0.5,12.8c1.6,9,5.9,15.8,12.4,19.8c1.3,2.8,3,5.3,5.1,7.5
	c4.5,4.6,8.6,9.6,12.3,14.8c-2.1,6.6-2.3,14.9-0.3,24.5c1.6,7.6,4.1,15,7.3,22c0.8,1.7,2.6,2.8,4.5,2.8c0.8,0,1.5-0.2,2.2-0.5
	c2.5-1.2,3.5-4.2,2.3-6.7c0,0,0,0,0,0c-2.9-6.4-5.1-13-6.5-19.9c-3.2-16.1,1-23.4,5.1-26.6c11.3-8.9,22-18.4,32.3-28.4
	c17.3-17.2,19.6-24.1,19.6-28.1c0-1.2,0.1-2.7,0.3-4.4c5.9-5.6,9-17.8,9.7-20.6C125.1,34,124.1,32.4,122.5,32
	C122.5,32,122.5,32,122.5,32z"/>
</svg>
