<svg id="Layer_1" data-name="Layer 1" xmlns="http://www.w3.org/2000/svg" viewBox="0 0 190.06 190.06"><defs><style>.cls-1{fill:none;stroke:#231f20;stroke-miterlimit:10;}</style></defs><title>svg_individual_elements</title><path class="cls-1" d="M172.39,89.16h-6.48l.72-4.32a4.5,4.5,0,1,0-8.88-1.48l-1.41,8.55-.94.55-6.27-1.13,6.23-12.71,12.49-9.54a4.5,4.5,0,0,0-5.47-7.15l-7.54,5.76-.76-4,2.84-6.18a4.5,4.5,0,1,0-8.17-3.76l-4.05,8.79,2.39,12.52L134,101.8l-6.68,3.74.54-11.64-.4-2,4.66-1.15,7.07-8.29a4.5,4.5,0,1,0-6.84-5.84l-5.2,6.09-1.53.38-.62-3V65.49h5.87L144.74,56a4.5,4.5,0,0,0-5.07-7.44l-11.58,7.89H125v-.64l10.67-19.32a4.5,4.5,0,1,0-7.88-4.35L116,53.53V69.16l-3.94-2.41a4.5,4.5,0,1,0-4.69,7.68L116,79.71v1.38l2.82,13.53-.22,4.62a4.34,4.34,0,0,0-2.33-1.54l-6.7-1.79,2.49-8a4.5,4.5,0,1,0-8.59-2.69l-3.34,10.67-1,.51C96,89,92.85,84,89.64,81.49c1.92-2.51,6.69-7.35,10.34-11,6.21-6.3,12.63-12.82,15.74-17.61,6.56-10.08,6-24.37,6-25a4.5,4.5,0,0,0-9,.4,45.68,45.68,0,0,1-1.44,12.31l-2.17-2.5-6.5-12.13a4.5,4.5,0,0,0-7.93,4.25l3.91,7.3-6.73,1.45a4.5,4.5,0,1,0,1.88,8.8l10-2.14,3.37,3.88c-3,4-8.57,9.62-13.51,14.64C90.41,67.32,87.94,69.86,86,72c-.4-1.07-.82-2.18-1.26-3.31l5.2-5.79.76-10.2a4.5,4.5,0,0,0-9-.68l-.54,7.15-.32.36c-2.42-5.23-4.27-8.12-5.78-9.82l.14-2.23,12.14-9.55a4.5,4.5,0,1,0-5.56-7.08L76,35.4l.48-7.66a4.5,4.5,0,0,0-9-.56l-1,16.57c-6.24-4.13-13.94-9.55-14-9.63a4.5,4.5,0,1,0-5.2,7.35c.35.25,5.06,3.57,10.14,7L49,54a4.5,4.5,0,0,0,2.49,8.25A4.56,4.56,0,0,0,54,61.5l11.51-7.64c1,.63,1.92,1.18,2.66,1.59,2.25,1.88,7.07,13,11,24.13a91.88,91.88,0,0,1-14.91-3.51l.21-1.63,0-9.79a4.5,4.5,0,1,0-9,0v8.14c-1.48-.66-2.88-1.35-4.16-2.07A15.17,15.17,0,0,1,49,69l-.12-.1c-6.7-5.87-9.13-17.22-9.19-17.47a4.5,4.5,0,0,0-8.82,1.78A48.42,48.42,0,0,0,33,60.15H29.32a4.5,4.5,0,1,0,0,9h8.12c.42.66.87,1.3,1.34,1.94l-4.6,2.39H26.85a4.5,4.5,0,0,0,0,9h9.52l9.22-4.79c.46.3.92.6,1.4.87A74.31,74.31,0,0,0,57.88,83.4l.07,0A104.08,104.08,0,0,0,75,88l-1.81,3.64c-.82,1.63-2,2.16-1,3.49l-5.3-4.81A4.5,4.5,0,0,0,60.85,97l5,4.54-.06,1.14-20.26-6A4.5,4.5,0,1,0,43,105.31l21,6.22,3.11,2.29h0L79.55,123l9.5,7.33-1.4.65L68.72,119.74l-8.65-1.33a4.5,4.5,0,0,0-1.37,8.9l6.93,1.06,4,2.34-4.44.92a4.5,4.5,0,0,0,.9,8.91,4.78,4.78,0,0,0,.92-.09l14.11-2.92,3.49,2.06c1,7.68,2.35,20.94.56,30.61l17.67.18s1.31-20.62,7-32.27l12.44,6.47a4.4,4.4,0,0,0,2.07.51,4.5,4.5,0,0,0,2.08-8.49l-2.2-1.15,17.35-1,1.49-1.71,2.52,1.64L156.78,136a4.89,4.89,0,0,0,.66.05,4.5,4.5,0,0,0,.64-9l-9-1.31,4.86-5.57.49-2.38A62.91,62.91,0,0,1,166,114.66a4.5,4.5,0,1,0-1.67-8.84c-.15,0-3.79.72-7.56,1.76l-.49.14a4.49,4.49,0,0,0-8.85-.31l-1.78,8.67-8.37,9.59-24,1.41L125,117.14l15.82-8.86L145,99.74l12.09,2.18,6.32-3.76h9a4.5,4.5,0,0,0,0-9ZM85,115.79l-10.48-7.72L75,98.64a22.38,22.38,0,0,1,3.22-.78c1.65,0,2.16-.61,3-2.19l3.38-6.77c2,2,5.31,8.33,7.72,14.65l-.48,17.53ZM118,111.25l-17.34,14.59.56-20.3,3.16-1.69,9.53,2.54a4.27,4.27,0,0,0,1.16.16,4.52,4.52,0,0,0,3.22-1.37Z"/></svg>