<?xml version="1.0" encoding="utf-8"?>
<!-- Generator: Adobe Illustrator 22.0.1, SVG Export Plug-In . SVG Version: 6.00 Build 0)  -->
<svg version="1.1" id="Layer_1" xmlns="http://www.w3.org/2000/svg" xmlns:xlink="http://www.w3.org/1999/xlink" x="0px" y="0px"
	 viewBox="0 0 134.5 134.5" style="enable-background:new 0 0 134.5 134.5;" xml:space="preserve">
<style type="text/css">
	.st0{fill:#FFFFFF;stroke:#000000;stroke-miterlimit:10;}
</style>
<title>svg_individual_elements</title>
<path class="st0" d="M59.3,83c0-7.3,5.9-13.2,13.2-13.2c7.3,0,13.2,5.9,13.2,13.2c0,7.3-5.9,13.2-13.2,13.2c0,0,0,0,0,0
	C65.2,96.2,59.3,90.3,59.3,83L59.3,83z M76.3,77.6c1.8,1.5,5.3,2.3,4-0.9s-5.2-4-7.2-3.8C69.5,73.2,74.4,76,76.3,77.6L76.3,77.6z
	 M80.2,85.3c0.1,1.8,3.1,1.6,3.2-1.5s-2.1-3.1-2.7-1.7C80.2,83.1,80.1,84.2,80.2,85.3L80.2,85.3z"/>
<path class="st0" d="M83.6,104.6c-3.9,0-7,3.1-7,7c0,3.9,3.1,7,7,7c3.9,0,7-3.1,7-7C90.6,107.8,87.5,104.6,83.6,104.6z M85.6,108.8
	L85.6,108.8c-0.9-0.8-3.5-2.4-1.7-2.5c1.1-0.1,3.1,0.3,3.8,2.1S86.6,109.6,85.6,108.8z M87.7,112.9c-0.1-0.6,0-1.2,0.2-1.7
	c0.3-0.8,1.5-0.7,1.4,0.9C89.3,113.7,87.8,113.9,87.7,112.9z"/>
<path class="st0" d="M55,17.8c-12,0-21.8,9.7-21.8,21.8c0,12,9.7,21.8,21.8,21.8c0,0,0,0,0,0c12,0,21.8-9.7,21.8-21.8
	C76.8,27.6,67,17.8,55,17.8z M61.2,30.7c-3-2.5-11.1-7.3-5.3-7.8c3.3-0.3,9.7,0.8,11.9,6.2C69.9,34.5,64.2,33.2,61.2,30.7z
	 M67.7,43.4c-0.2-1.8,0.1-3.6,0.7-5.3c1-2.3,4.7-2.3,4.5,2.8C72.6,46,67.9,46.4,67.7,43.4z"/>
</svg>
