<svg id="Layer_1" data-name="Layer 1" xmlns="http://www.w3.org/2000/svg" viewBox="0 0 140.19 190.06"><defs><style>.cls-1{fill:none;stroke:#231f20;stroke-miterlimit:10;}</style></defs><title>svg_individual_elements</title><path class="cls-1" d="M113.89,55.42c-.4-2.74-2.62,3.66-3.66,1.57s3-6.4,2.87-8.62-3.26,3.13-3.52,0,5.52-3.92,4.33-5.75-3.68,2.74-3.68,0,5.22-7.57,2.74-7.57-3.66,1.17-3.39-1.18,3-4.31,1.17-4.7-2.48-3-1.44-5.75-.91-5-2-3.27S105.79,11,102.91,13s4,7.44,2.75,9.8-5.62-1.83-3.66.91,5.09,2.87,5.09,4.83-4-2.87-4-.65,4,2.74,4,5.1-3.65-1.31-4,.78,4.31,3.79,4.31,5.88-.13,3.92-3.26,1.43,0,3,2.09,6.67-.78-.13-3,0,3.79,3.13,3.53,6.66-.52,7-3.4,3.66-1.56,2.74,1.18,5.61.65,4.71-1.83,1.83-1,3,1.57,5.75-.78,8-2,4.31-2.61-2.35-2.35-.52,4.18,4,2.61,6.27-2.61,0-3.92-2.48-2.87,1.82.26,5.22,2.62,7.71,1.18,6.53-3.53-7.18-4.57-6.4S99,92,98.73,95.54,96,103,96,99.45s-3.27-5.88-3.4-3,3.27,5.1,3.14,8.1S94.29,110,94,107.15s-2.35-5.09-2.87-3.26,2.09,6.4,2,9,.78,7-.79,5-2.35-8-3.39-5.61,2.35,6.27,2.35,9-.39,9-2.48,4.57c-.26-.53-.47-1-.66-1.47.57-1.64.95-3.17.5-4.17-.87-2-.78-1.44-1.74,1.14-.22-.28-.41.06-.85,1.11a2.85,2.85,0,0,0-.15,1.33c-2,4.2-2.45-1.94-2.51-4.66s3.27-6.72,2.18-9-1.76,3.56-3.29,5.68-.7-2.34-.88-4.95,2.35-7.23,1.79-9.05-2.61.44-2.81,3.32-1.56.42-1.75-2.58,3.17-5.29,3-8.16-3.41-.45-3.34,3.07-2.49-.34-2.82-3.85,4.11-10.68,3.05-11.44-3,5.29-4.45,6.49-2-3.1,1-6.55,1.42-7.74.16-5.23S73,81.55,71.4,79.36s2.27-4.48,2.49-6.32-1.23-3.11-2.34.57-4.6-1.48-2-4.27,3.88-8.7,1.46-5.78-4.55,1.14-1.87-1.79,3.88-9.09,1.07-5.64S67,56.06,66.7,52.54s5.62-6.64,3.4-6.73-5,3.76-3,.06,5.05-9.24,2-6.7-3.25.71-3.29-1.38,4.63-3.87,4.19-6-4,1.65-4.06-.7,4-2.95,3.95-5.17-4,2.69-4,.73,3.1-2.15,5-4.93-2.32,1.48-3.67-.85,5.47-7.94,2.55-9.84-3.22,8.94-4.3,7.26-3,.58-1.89,3.31S64,27,62.17,27.41s1,2.33,1.27,4.68-.9,1.19-3.38,1.24S62.9,38.11,63,40.85s-2.52-1.78-3.67.07,4.64,2.53,4.43,5.67-3.43-2.16-3.52.07,4,6.45,3,8.56-3.35-4.25-3.69-1.5,5.46,5.39,4.84,7-2.52-2-3.92.07S67.22,72.65,66.61,75s-3.71-2.93-4.44.09,7.58,6.52,7.25,10.05-5.65-1.59-5.58,1.68,9.27,6.74,9.32,9.22-7.11-3-7,.14,10.06,7,10.91,11.42c.58,3-8.8-3.23-9.54-1.13s12.12,11.92,10.7,13S72.35,115,71.36,118s12.24,11.26,10,13.13-4.76-3.57-5.58.11,9.72,10.66,7.9,11.08-7.13-4-7.69-1.55c-.34,1.49,3.86,5.24,7.26,8.31a2.25,2.25,0,0,0-.1,1c0,.39,0,.84.07,1.32-.89-.69-1.79-1.4-2.54-2a3.39,3.39,0,0,0-2.47-.65c-1.15-4.35-2.76-7.72-2.86-5.39s-2.3-.66-3.7-2.81-1.3-8.9-2.93-10.35-.82-.5-.25,4.35-2.22-.11-3.34-2.38-.68-7.41-2.26-8.76.34,3.94.26,6.55-1.34-1.57-2.48-3.66-1.45-7.33-2.5-8.54-1.39,1.8-.38,4.32-.77,1.2-2.07-1.2-.18-6.16-1.43-8.46-2.23,1.49-.8,4.4-1.63,1.08-3.21-1.68S48.55,104.05,47.61,104s.26,6.08-.11,7.86-2.44-1.48-2-6-2.2-7.25-2-4.46.52,5.21-1.32,4.26-.4-5-1-6.65-2-1.93-1.19,1.76-3.35,1.28-2.91-2.46-1.1-9.4-1.41-5.63-2.29,3.45-1.83-.47-1.25-9.73-1.58-5.3-1.92,1.66-3.51-1.11.77-8.63-.61-7.49-1.54,5.9-1.78,1.7-.61-10.5-1.47-6.68-1.67,2.38-2.52.66,1.25-5.79.17-7.29-1.77,3.58-2.73,1.64,1.24-4.66.34-6.49-1.34,4.44-2.14,2.82,1-3.49,1.06-6.86-.81,2.51-2.54,1.31.15-9.64-2.35-9.64,1.59,9.25.28,8.44S13,60,14.7,61.66s2.41,4.2,1.48,5.56,1.5,1.42,2.61,3.21-.06,1.49-1.54,2.89S20.84,75.76,22,78s-2.22-.11-2.19,2.07,3.79-.43,4.91,2.3-2.92.09-2.09,2,5,3.17,5.21,5.49-3.69-1.72-2.81.77,5.41,1.51,5.66,3.17S28.32,93.5,28.32,96s8.77,6.24,9.33,8.54-3.39-.41-2.64,2.51,7.14,1.3,8.34,4.43-4,1.77-2.7,4.47,8.24.55,9.25,2.6-5.46,1.39-4.19,4,8.82.33,11.08,3.56c1.54,2.2-6.57,2.13-6.19,4.3s12,3.31,11.57,5-5.27-.53-4.67,2.54,11.81,2.7,11.23,5.48-4.27-.38-3.32,3.15,10.06,3.58,9.14,4.93-5.9.53-5.25,2.92,11.4,3.1,11.91,4.36c.22.57-.44.73-1.45.72-1.12-1-2.15-1.49-2.91-.69a1.38,1.38,0,0,0-.26.4l-1-.12c-2.27-.21-4.32,4.42,1.21,4.55.25,0,.5,0,.74.06a39.68,39.68,0,0,0,3,4.87c-1.8-.81-3.34-1.08-3.55.47-.27,2,1.79,7.54,4.78,9.28,3.38,2,7.77,0,7.77,0s12.15-14.49,9.14-17.5-9.66,12.54-9.93,9.41l0-.58,3.64-10.19a17.29,17.29,0,0,1,3.45-3.21c6.27-4.44,1.3-6.66-1.18-4.7-.74.58-1.62,1.31-2.49,2,0-.79,0-1.59,0-2.36,3.34-3.14,7.43-6.94,7.07-8.42-.61-2.48-5.83,2.09-7.66,1.7s8.57-7.57,7.68-11.23-3.34,1.83-5.58,0S104.35,123,103.3,120s-5.35,2.62-6.79,1.57,11.24-11.1,10.45-13.19-10,4.33-9.52,1.3c.77-4.44,10.7-8.49,10.7-11.62s-7.06,2.48-7.06,0,9.15-6.14,9.15-9.41-5.23,2-5.62-1.56,7.84-7.19,7.06-10.19-3.79,2.35-4.45,0,7.32-12.28,5.88-14.37-3.26,1.56-3.92,0S114.28,58.17,113.89,55.42ZM88.54,133.28c-.14,1-.32,2.22-.57,3.26-.78-.76-1.28-3.46-1.59-5.46a8.13,8.13,0,0,1,.62-3.52C87.82,129.65,88.74,131.81,88.54,133.28Z"/></svg>