<svg id="Layer_1" data-name="Layer 1" xmlns="http://www.w3.org/2000/svg" viewBox="0 0 190.06 133.64"><defs><style>.cls-1{fill:none;stroke:#231f20;stroke-miterlimit:10;}</style></defs><title>svg_individual_elements</title><path class="cls-1" d="M91.3,100.52c-1.57-3.07-3.17-10.47-8.57-10.79S69.09,85.92,67.19,77.67s-7.3-24.11-21.9-24.43-6.34-11.11,0-11.11,1.91-7,6.35-7,8.68,1.59,12.59-1.26S85,29.44,87.49,37.69s.32,25.7.32,25.7.32-8.56,3.49-9.2,10.47.32,14-5.08,10.47-9.51,17.45-10.78,5.71-5.08,11.11-5.08,13-.63,14.59,1.27,2.22,7.61-2.22,13S151,50.07,151,55.14s0,6.27-2.54,10.91-8.56,9.08-14.28,11.3-7.08,8.17-15.33,11c-2.06.72-2.35,5-4.66,7.07C107.23,101.63,94.05,105.91,91.3,100.52ZM86.55,35.81s3.24,7.57-13.86,10.84-5.38,17.67,1,17.86,4.07,4.62,1.65,7.11-5.65,14.6,0,12.87S78.84,75.27,91,76s5.18-3.26,16.9-.38,11.53-1.54,15.76-1.16,7.47,5.42,3.08,8.85m5.74-5.16c3.88-9.81-1.32-5.36,3.68-16.3,6-13.11.43-6.93-13.05-7.91s.35,2.27-13.63,6.26A28.74,28.74,0,0,0,91,76M76.79,65.26,87.38,76.08M63.81,54.75,66.4,74.61"/></svg>