<?xml version="1.0" encoding="utf-8"?>
<!-- Generator: Adobe Illustrator 22.0.1, SVG Export Plug-In . SVG Version: 6.00 Build 0)  -->
<svg version="1.1" id="Layer_1" xmlns="http://www.w3.org/2000/svg" xmlns:xlink="http://www.w3.org/1999/xlink" x="0px" y="0px"
	 viewBox="0 0 190.1 190.1" style="enable-background:new 0 0 190.1 190.1;" xml:space="preserve">
<style type="text/css">
	.st0{fill:#FFFFFF;stroke:#000000;stroke-miterlimit:10;}
</style>
<title>svg_individual_elements</title>
<path class="st0" d="M172.4,89.2h-6.5l0.7-4.3c0.4-2.5-1.2-4.8-3.7-5.2c-2.5-0.4-4.8,1.2-5.2,3.7l0,0l-1.4,8.6l-0.9,0.6l-6.3-1.1
	l6.2-12.7l12.5-9.5c2-1.5,2.4-4.3,0.8-6.3c-1.5-2-4.3-2.4-6.3-0.8l-7.5,5.8l-0.8-4l2.8-6.2c1.1-2.2,0.2-4.9-2-6
	c-2.2-1.1-4.9-0.2-6,2c-0.1,0.1-0.1,0.2-0.1,0.3l-4.1,8.8l2.4,12.5L134,101.8l-6.7,3.7l0.5-11.6l-0.4-2l4.7-1.2l7.1-8.3
	c1.7-1.8,1.6-4.7-0.3-6.4s-4.7-1.6-6.4,0.3c-0.1,0.1-0.1,0.2-0.2,0.3l-5.2,6.1l-1.5,0.4l-0.6-3V65.5h5.9l13.9-9.5
	c2.1-1.4,2.6-4.2,1.2-6.3c-1.4-2.1-4.2-2.6-6.3-1.2l-11.6,7.9H125v-0.6l10.7-19.3c1.2-2.2,0.4-4.9-1.8-6.1s-4.9-0.4-6.1,1.8
	L116,53.5v15.6l-3.9-2.4c-2.1-1.3-4.9-0.7-6.2,1.4c-1.3,2.1-0.7,4.9,1.4,6.2c0,0,0.1,0.1,0.1,0.1l8.6,5.3v1.4l2.8,13.5l-0.2,4.6
	c-0.6-0.8-1.4-1.3-2.3-1.5l-6.7-1.8l2.5-8c0.7-2.4-0.6-4.9-2.9-5.6s-4.9,0.6-5.6,2.9l-3.3,10.7l-1,0.5C96,89,92.8,84,89.6,81.5
	c1.9-2.5,6.7-7.3,10.3-11c6.2-6.3,12.6-12.8,15.7-17.6c6.6-10.1,6-24.4,6-25c-0.1-2.5-2.2-4.4-4.7-4.3c-2.5,0.1-4.4,2.2-4.3,4.7l0,0
	c0.1,4.1-0.4,8.3-1.4,12.3l-2.2-2.5L102.6,26c-1.2-2.2-4-2.9-6.1-1.7c-2.1,1.2-2.9,3.8-1.8,5.9l3.9,7.3L91.9,39
	c-2.4,0.5-4,2.8-3.6,5.3c0.5,2.4,2.8,4,5.3,3.6c0.1,0,0.1,0,0.2,0l10-2.1l3.4,3.9c-3,4-8.6,9.6-13.5,14.6c-3.2,3.2-5.7,5.7-7.6,7.9
	c-0.4-1.1-0.8-2.2-1.3-3.3l5.2-5.8l0.8-10.2c0.2-2.5-1.7-4.7-4.2-4.8c-2.5-0.2-4.7,1.7-4.8,4.2l-0.5,7.2l-0.3,0.4
	c-2.4-5.2-4.3-8.1-5.8-9.8l0.1-2.2l12.1-9.5c2-1.5,2.3-4.4,0.8-6.3c-1.5-2-4.4-2.3-6.3-0.8L76,35.4l0.5-7.7c0.2-2.5-1.7-4.6-4.2-4.8
	c-2.5-0.2-4.6,1.7-4.8,4.2l-1,16.6c-6.2-4.1-13.9-9.5-14-9.6c-2-1.4-4.8-1-6.3,1.1c-1.4,2-1,4.8,1.1,6.3c0.3,0.2,5.1,3.6,10.1,7
	L49,54c-2.1,1.4-2.6,4.2-1.3,6.2c0.8,1.3,2.2,2,3.8,2c0.9,0,1.8-0.3,2.5-0.8l11.5-7.6c1,0.6,1.9,1.2,2.7,1.6c2.2,1.9,7.1,13,11,24.1
	c-5.1-0.8-10-1.9-14.9-3.5l0.2-1.6v-9.8c0-2.5-2-4.5-4.5-4.5s-4.5,2-4.5,4.5v8.1c-1.5-0.7-2.9-1.3-4.2-2.1c-0.8-0.5-1.6-1.1-2.3-1.7
	l-0.1-0.1c-6.7-5.9-9.1-17.2-9.2-17.5c-0.5-2.4-3-3.9-5.4-3.4c-2.3,0.5-3.9,2.8-3.4,5.2c0.5,2.4,1.2,4.7,2.1,6.9h-3.7
	c-2.5,0-4.5,2-4.5,4.5s2,4.5,4.5,4.5h8.1c0.4,0.7,0.9,1.3,1.3,1.9l-4.6,2.4h-7.3c-2.5,0-4.5,2-4.5,4.5s2,4.5,4.5,4.5h9.5l9.2-4.8
	c0.5,0.3,0.9,0.6,1.4,0.9c3.5,1.9,7.1,3.5,10.9,4.8H58c5.5,2,11.2,3.6,17,4.6l-1.8,3.6c-0.8,1.6-2,2.2-1,3.5l-5.3-4.8
	c-1.8-1.7-4.7-1.5-6.4,0.3c-1.7,1.8-1.5,4.7,0.3,6.4l5,4.5l-0.1,1.1l-20.3-6c-2.4-0.8-4.9,0.5-5.7,2.8c-0.8,2.4,0.5,4.9,2.8,5.7
	c0.1,0,0.2,0.1,0.3,0.1l21,6.2l3.1,2.3l0,0l12.4,9.2l9.5,7.3l-1.4,0.6l-18.9-11.2l-8.7-1.3c-2.5-0.4-4.8,1.3-5.1,3.8
	c-0.4,2.5,1.3,4.8,3.8,5.1l6.9,1.1l4,2.3l-4.4,0.9c-2.4,0.5-4,2.9-3.5,5.3c0.4,2.1,2.3,3.6,4.4,3.6c0.3,0,0.6,0,0.9-0.1l14.1-2.9
	l3.5,2.1c1,7.7,2.3,20.9,0.6,30.6l17.7,0.2c0,0,1.3-20.6,7-32.3l12.4,6.5c0.6,0.3,1.3,0.5,2.1,0.5c2.5,0,4.5-2,4.5-4.5
	c0-1.7-0.9-3.2-2.4-4l-2.2-1.1l17.4-1l1.5-1.7l2.5,1.6l11.2,1.6c0.2,0,0.4,0,0.7,0.1c2.5,0.2,4.6-1.7,4.8-4.2
	c0.2-2.5-1.7-4.6-4.2-4.8l0,0l-9-1.3l4.9-5.6l0.5-2.4c3.7-1.4,7.6-2.5,11.6-3.1c2.5-0.4,4.1-2.7,3.7-5.2s-2.7-4.1-5.2-3.7
	c-0.1,0-0.2,0-0.3,0c-0.1,0-3.8,0.7-7.6,1.8l-0.5,0.1c-0.3-2.5-2.6-4.2-5-3.9c-1.9,0.3-3.4,1.7-3.8,3.6l-1.8,8.7l-8.4,9.6l-24,1.4
	l11.7-9.9l15.8-8.9l4.2-8.5l12.1,2.2l6.3-3.8h9c2.5,0,4.5-2,4.5-4.5S174.9,89.2,172.4,89.2L172.4,89.2z M85,115.8l-10.5-7.7l0.5-9.4
	c1.1-0.3,2.1-0.6,3.2-0.8c1.7,0,2.2-0.6,3-2.2l3.4-6.8c2,2,5.3,8.3,7.7,14.7l-0.5,17.5L85,115.8z M118,111.2l-17.3,14.6l0.6-20.3
	l3.2-1.7l9.5,2.5c0.4,0.1,0.8,0.2,1.2,0.2c1.2,0,2.4-0.5,3.2-1.4L118,111.2z"/>
</svg>
