<?xml version="1.0" encoding="utf-8"?>
<!-- Generator: Adobe Illustrator 22.0.1, SVG Export Plug-In . SVG Version: 6.00 Build 0)  -->
<svg version="1.1" id="Layer_1" xmlns="http://www.w3.org/2000/svg" xmlns:xlink="http://www.w3.org/1999/xlink" x="0px" y="0px"
	 viewBox="0 0 90.6 190.1" style="enable-background:new 0 0 90.6 190.1;" xml:space="preserve">
<style type="text/css">
	.st0{fill:#FFFFFF;stroke:#000000;stroke-miterlimit:10;}
</style>
<title>svg_individual_elements</title>
<path class="st0" d="M58.2,158.1c-1-19.6,8.4-38.5,8.5-39.1c-0.8-0.8-1.6-1.6-2.3-2.3c-0.3,0.9-7.7,15.8-9,32.6
	c-0.5-1.8-1.1-3.8-1.7-5.9c-1.5-18.8,11.3-37.2,11.4-37.9l-2-2.6c-0.5,0.9-10,15-12,30.5c-0.9-3.7-1.8-7.6-2.8-11.8
	c0.4-1.9,5.7-8.6,10.5-14.9c-0.7-0.9-1.3-1.8-2-2.7c-2.9,3.8-7.2,9.2-9.6,12.9c-0.5-2.1-0.9-4.3-1.4-6.5c2.7-1.9,5.2-4.1,7.4-6.6
	c3.8-4,7.4-8.3,9.8-7.7c0.2-1.2,0.3-2.5,0.5-3.7c-3.7-0.9-7.6,3.8-12.1,8.6c-1.9,2.1-4,4-6.2,5.8c1-6.3,13-21.3,17.7-27.6
	c-0.6-0.9-1.2-1.8-1.8-2.7c-1.6,2.1-12.7,16.1-17.1,24.7c-0.4-2.2-0.7-4.3-1-6.3c2.3-1.1,4-4.3,5.8-8.1c2.5-5.1,5.3-11.2,10.5-14.2
	c-0.3-1.1-0.6-2.2-0.9-3.4c-6.1,3.7-9.4,10.7-12,15.9c-1.4,2.8-2.6,5.2-3.9,6.3c-0.1-0.8-0.2-1.5-0.2-2.3c0,0,0-0.1,0-0.1
	c0.3-2.1,6.2-11,11.9-19.6c-0.7-0.7-1.3-1.4-2-2.1c-1.5,2.2-7.2,10.6-10.4,16.1c-0.1-2-0.2-4-0.2-5.9c4.6-2.7,13-15,16.9-21.1l-2-2
	C51.2,62.9,45,71.3,42,74c0-0.7,0-1.4,0-2.2c2.3-1.7,6.5-5.6,14.4-17.5c-0.7-0.7-1.3-1.3-2-2c-4.4,6.6-9.5,13.3-12.3,15.9
	c0.2-4,0.5-7.8,1-11.5l0.2-0.1c0.6-0.2,1.2-0.5,1.7-0.9c8.2-5.7,11.5-10.8,11.7-11c-0.7-0.6-1.3-1.2-2-1.8c0,0.1-3,4.6-10.4,10
	c-0.2,0.2-0.4,0.3-0.7,0.4c0.1-1,0.3-1.9,0.4-2.9c0.2,0,0.4-0.1,0.5-0.2c0.5-0.2,1-0.6,1.4-1c3.6-3.1,6.7-6.8,9.2-10.9
	c-0.7-0.5-1.4-1-2.2-1.5c-2.2,3.6-4.9,6.9-8.1,9.7c-0.1,0.1-0.2,0.2-0.4,0.3c0.2-1.4,0.5-2.8,0.8-4.2c3.3-2.8,7.1-9.1,7.6-9.9
	c-0.7-0.5-1.4-1-2.1-1.4C49.5,33.8,48,36,46.4,38c0.5-2.1,1-4,1.4-5.7c1.7-1,3.7-3.2,6-6.8c-0.7-0.5-1.3-1-2-1.5
	c-0.8,1.3-1.8,2.6-2.8,3.8c1.3-4.5,2.3-7.2,2.3-7.3c-0.9,0-1.8-0.1-2.7-0.1c0,0.1-1.2,3.1-2.6,8.1c-0.7-1.6-1.1-3.4-1-5.2
	c-1,0.6-2,1.3-3,1.9c0,0.8,0.1,6.6,2.8,7.6c-0.5,1.9-1,4.1-1.6,6.3c-1-2.6-2-8.4-2.6-14.7c-1,0.8-2,1.6-3,2.4
	c1.4,14.3,3.8,16.8,4.6,17.2c-0.1,0.5-0.2,1.1-0.3,1.6c-1.6-2.3-2.8-6.5-3.4-9.4c-1,0.8-2,1.6-2.9,2.4c0.2,1,2,9.2,5.5,11.5
	c-0.2,1-0.3,2-0.5,3c-3.2-2.5-5.1-10.4-5.6-13.6c-1,0.8-2,1.5-3,2.3c0.2,1.3,2.4,13.2,8,15.1h0.1c-0.1,0.6-0.2,1.2-0.2,1.7
	c-4.4-0.5-10.2-5.8-12.4-7.5c-0.8,1-1.7,2-2.5,3c0.9,0.4,8.1,7.4,14.5,7.8c-0.2,2.3-0.4,4.6-0.5,7c-2.1-1.9-6-7-9.1-10.8
	c-0.8,0.9-1.7,1.7-2.5,2.6c2.5,2.6,8.1,10.6,11.5,12c0,0.5,0,1.1,0,1.7c-3-2.2-8.9-8.5-13.9-12.1l-2.4,2.7
	c4.7,2.9,12.3,11.2,16.3,13.1c0,3.1,0.2,6.2,0.5,9.5c-4-2.6-15-10.6-15.5-12l-2.9,1.1c0.4,2.1,14.1,12.2,18.7,14.3
	c0,0.3,0,0.5,0.1,0.8c-4.7-2-15.4-10.2-22.7-12.6c-0.6,0.8-1.3,1.5-1.9,2.2c3.3,1.3,18.4,11.1,25,13.8c0.5,3.7,1.2,7.6,2,11.7
	c-2.7-1.2-12.2-13.4-20.1-20.1c-0.7,0.6-1.4,1.2-2.1,1.8c5.1,4.2,12.9,13.4,18.4,18.7c-5.7-2.7-13.4-9.3-18.3-12.8
	c-0.6,0.6-1.3,1.2-1.9,1.7c1.7,0.5,14.4,13,23,15.2c0.7,0.1,1.3,0.2,2,0.1c0.6,2.8,1.2,5.5,1.8,8.2c-4.9-3-19.1-14.9-20.6-16.7
	c-0.8,0.4-1.6,0.7-2.4,1c2.2,2.7,18.6,16.9,23.9,19.4c0.9,4.1,1.9,7.9,2.8,11.4c-8.9-5.1-21.7-22.5-21.8-22.1
	c-0.7,0.4-1.3,0.9-2,1.3c0.5,0.9,14.7,19.9,24.8,24.7c0.4,1.6,0.8,3.2,1.3,4.8c-11.1-6.7-23.3-24.9-23.4-24.5
	c-0.7,0.4-1.4,0.7-2,1.1c0.1,0.4,14,20.8,26.6,27.5c5.8,20.4,9.8,26.3,10,26.5c0.6-0.7,1.2-1.4,1.8-2.1
	C63.9,171.7,61.8,168.5,58.2,158.1z"/>
</svg>
