<?xml version="1.0" encoding="utf-8"?>
<!-- Generator: Adobe Illustrator 22.0.1, SVG Export Plug-In . SVG Version: 6.00 Build 0)  -->
<svg version="1.1" id="Layer_1" xmlns="http://www.w3.org/2000/svg" xmlns:xlink="http://www.w3.org/1999/xlink" x="0px" y="0px"
	 viewBox="0 0 57.7 57.7" style="enable-background:new 0 0 57.7 57.7;" xml:space="preserve">
<style type="text/css">
	.st0{fill:#FFFFFF;stroke:#000000;stroke-miterlimit:10;}
</style>
<title>svg_individual_elements</title>
<path class="st0" d="M17.6,31c0-7.3,5.9-13.2,13.2-13.2S44,23.7,44,31c0,7.3-5.9,13.2-13.2,13.2C23.5,44.2,17.6,38.3,17.6,31
	C17.6,31,17.6,31,17.6,31z M34.9,25.5c1.8,1.5,5.3,2.3,4-1s-5.2-4-7.2-3.8C28.1,21.1,33.1,24,34.9,25.5z M38.8,33.2
	c0.1,1.8,3,1.5,3.1-1.5s-2.1-3.1-2.7-1.7C38.9,31,38.7,32.1,38.8,33.2z"/>
</svg>
