<svg id="Layer_1" data-name="Layer 1" xmlns="http://www.w3.org/2000/svg" viewBox="0 0 139.97 190.06"><defs><style>.cls-1{fill:none;stroke:#231f20;stroke-miterlimit:10;}</style></defs><title>svg_individual_elements</title><path class="cls-1" d="M30.61,63.08c-.74,1.48-2.88-2.37-4.59-.49s7.76,12.64,7,14.78-4.25-3.23-5.19-.34,8.73,7,8.2,10.32c-.38,3.4-6.42-1.83-6.46,1.36C29.68,92,40,95.54,39.86,97.84c.08,2.38-7.79-2.94-7.88.08.17,3.11,11.09,6.68,11.67,10.77.64,2.84-9.29-2.81-10.35-.78-.64,2.16,12.88,10.89,11.16,12-1.46,1.12-6-3.94-7.18-1-1,3,12.43,10,10,12-2.28,2-4.69-3.13-5.71.52s9.4,9.77,7.49,10.37-7-3.51-7.72-1c-.41,1.52,3.71,4.87,6.9,7.83,0,.79-.09,1.62-.14,2.44-.84-.66-1.7-1.34-2.42-1.87-2.44-1.76-7.6,1-1.37,5a13.88,13.88,0,0,1,3.34,3.1c1.06,3.52,2.11,7.14,3.15,10.91,0,.23,0,.45-.05.65-.4,3.31-6.3-13.28-9.54-9.63-3.1,3,8.4,18.53,8.34,19,0,0,4.29,2.35,7.76,0,3.08-2.15,5.29-8.78,5.08-11-.16-1.77-1.67-1.42-3.46-.44a49.74,49.74,0,0,0,3-5.57l.72-.09c5.35-.3,3.46-5.34,1.29-5l-1,.16a1.49,1.49,0,0,0-.24-.43c-.71-.83-1.71-.31-2.82.86-1,.05-1.62-.09-1.38-.71.57-1.42,10.85-2.53,11.45-5s-4-1.57-4.89-2.94,7.7-1.69,8.58-5.25-2.53-.37-3.05-3.13,9.76-2.45,10.29-5.38-3.88-.91-4.28-2.52,10.16-2.53,10.51-4.52S80,125,81.44,123c2-3,8.91-.64,10.1-3s-4.84-2-3.92-3.82,7.34.36,8.62-2-3.73-1.38-2.62-4.2,7.25-1.13,8-3.79-3.17-.28-2.62-2.38,9.35-5.36,9.45-7.78-2.7-.52-2.44-2.07,5-.66,6-3-3.3,1.52-3-.68,4.74-3.5,5.71-5.38-3.57.85-2.31-1.82,5.45-.35,5.52-2.48-3.75.39-2.47-1.87,7.15-3.7,5.44-5-3.06-.84-1.77-2.7,4.15-2.2,3.06-3.45-.28-3.8,1.78-5.7,1.75-4.81.2-3.81,3.28-8.84.35-8.47-.76,8.51-2.78,9.94-2.92-4.3-2.9-1,2.07,5,1.14,6.65-1.37-4.44-2.41-2.53S119,67,117.9,69s-1.82-2.9-3-1.33,1.07,5.32.11,7.06-1.88,3.17-2.77-.44-1.36,2.48-1.65,6.48-.45-.51-1.89-1.52,1,4.44-.71,7.09-3.32,5.23-3.63,1.13-2.09,1.33-1.63,4.93-1.53,3.91-1.83.45S99,94.56,99.48,98s-3.57,5.53-2.82,2.2-.58-3.1-1.14-1.61.82,5.18-.91,6-1.48-1.37-1.27-3.87-2.29-.13-1.82,4-1.4,7.06-1.76,5.43.7-7.13-.16-7.08-1,7.59-2.37,10.06-4.18,4.08-2.91,1.46.36-6-.74-4-.08,5.46-1.23,7.64-2.75,3.38-1.86,1.07.58-5-.36-4-1.18,5.89-2.2,7.83-2.15,5.87-2.23,3.41,1.65-7.35.24-6.11-1,6-2,8.2-3.57,7-3,2.3,1.28-5.52-.2-4.14-1.45,7.85-2.77,10-1.28,5.23-3.11,3.56c-1.49-1.37-2,.4-3.16,4.91a3.22,3.22,0,0,0-2.37.78c-.73.62-1.61,1.41-2.49,2.18,0-.51.07-1,.11-1.38a2.36,2.36,0,0,0-.07-1c3.38-3.37,7.36-7.26,7.07-8.72-.46-2.45-5.53,2.21-7.28,1.92s8.41-7.78,7.63-11.15-3.14,1.8-5.18.13,10.32-9.91,9.35-12.53-4.89,2.39-6.19,1.47,10.41-10.09,9.68-11.87-9,3.78-8.53,1.1c.84-4,9.72-7.44,9.75-10.19s-6.27,2.07-6.25-.11,8.2-5.25,8.25-8.14-4.64,1.64-4.94-1.49,7-6.22,6.41-9-3.4,2.05-3.94-.09,6.73-11.05,5.51-13.09-3,1.43-3.53-.06,4.67-4,4.39-6.66S76.56,61,75.66,58.92s2.86-6.17,2.8-8.4-3.07,3.08-3.24-.05,5.18-3.88,4.13-5.77-3.48,2.77-3.42-.05,5.07-7.88,2.74-7.92-3.48,1.21-3.19-1.32,3-4.66,1.22-5.13-2.33-3.39-1.27-6.54-.8-5.84-1.85-3.85-1.43-11-4.34-8.78,4,9.14,2.65,11.79-5.47-2.29-3.57.94,4.91,3.43,4.88,5.63-3.86-3.33-3.88-.85,3.86,3.18,3.82,5.74-3.46-1.52-3.85.73,4,4.2,4,6.38-.17,4.07-3.07,1.4,0,3.16,1.87,6.86-.71-.14-2.77-.1,3.47,3.29,3.16,6.69-.56,6.75-3.13,3.41-1.44,2.6,1,5.36.53,4.4-1.67,1.65-1,2.78,1.34,5.35-.8,7.2-1.8,3.86-2.33-2.23-2.11-.56,3.7,3.8,2.27,5.74-2.34-.07-3.49-2.36-2.62,1.56.18,4.7,2.23,6.92,1,5.85-3.08-6.5-4-5.84,3.1,7.13,2.79,10.22-2.61,6.56-2.55,3.42-2.88-5.3-3.06-2.73,2.91,4.6,2.72,7.27-1.44,4.92-1.61,2.33-2.06-4.58-2.59-2.94,1.8,5.76,1.6,8.13.54,6.42-.86,4.53-2-7.23-3-5.08,2.05,5.69,2,8.23-.66,8.28-2.45,4.45c0-.47,1.15-1,.76-1.75-.79-1.59-1.46-.76-1.68-.49-.88-2.35-.78-2.85-1.66-1-.45,1-.11,2.38.41,3.89-.19.43-.41.9-.66,1.43-2.13,4.35-2.4-1.58-2.35-4.16s3.43-6.4,2.43-8.51-1.82,3.33-3.42,5.39-.61-2.18-.71-4.6,2.54-6.75,2-8.4-2.6.41-2.9,3.09-1.59.43-1.71-2.37,3.35-4.91,3.2-7.54-3.42-.49-3.44,2.81-2.57-.32-2.85-3.63,4.45-9.83,3.35-10.57-3.2,4.78-4.74,5.88-2.09-3,1.22-6.12,1.56-7.18.23-4.92S40,84.12,38.25,81.93,40.77,77.82,41,76.1s-1.29-3.07-2.52.35-5.07-1.84-2.2-4.3,4.25-8,1.64-5.43-5,.57-2-2,4.2-8.37,1.19-5.36-3.45-.49-3.78-4,6.1-5.77,3.7-6.17-5.48,3-3.25-.38,5.35-8.56,2.1-6.42-3.51.24-3.54-1.86,4.94-3.27,4.44-5.47-4.23,1.15-4.31-1.26,4.2-2.5,4.11-4.82-4.14,2.31-4.21.28,3.24-1.83,5.13-4.59-2.35,1.35-3.8-1.23,5.44-8,2.43-10.31c-2.94-2.07-3.11,9.36-4.26,7.46s-3.1.35-2,3.23.54,5.53-1.43,5.71,1,2.48,1.34,4.9-1,1.08-3.71.74,3.08,5.23,3.12,8-2.79-2.19-4.16-.54,5.24,3.3,5,6.38-3.87-2.71-4-.51,4.55,7.08,3.37,9-3.82-4.75-4.28-2.08S31.38,61.64,30.61,63.08ZM53.8,124.94a7.33,7.33,0,0,1,.53,3.31c-.35,1.93-.9,4.58-1.68,5.38-.21-1-.36-2.14-.47-3.12C52,129.1,53,127,53.8,124.94Z"/></svg>