<svg id="Layer_1" data-name="Layer 1" xmlns="http://www.w3.org/2000/svg" viewBox="0 0 98.58 190.06"><defs><style>.cls-1{fill:none;stroke:#231f20;stroke-miterlimit:10;}</style></defs><title>svg_individual_elements</title><path class="cls-1" d="M59.47,156c-1-19.61,8.43-38.51,8.49-39.08-.77-.78-1.54-1.56-2.32-2.33-.34.92-7.69,15.8-9,32.61-.54-1.83-1.1-3.8-1.67-5.89-1.54-18.85,11.3-37.17,11.4-37.88-.68-.88-1.36-1.76-2-2.62-.47.92-9.94,15-12,30.51-.9-3.66-1.84-7.6-2.79-11.83.4-1.87,5.73-8.57,10.55-14.93l-2-2.71c-2.95,3.83-7.25,9.17-9.64,12.91-.47-2.11-.93-4.3-1.4-6.53a42.44,42.44,0,0,0,7.4-6.58c3.79-4,7.39-8.29,9.78-7.65.18-1.24.35-2.48.52-3.72-3.71-.92-7.61,3.82-12.12,8.6a48.65,48.65,0,0,1-6.22,5.76c1-6.35,13-21.27,17.72-27.61l-1.78-2.66c-1.56,2.1-12.74,16.07-17.06,24.73-.37-2.16-.7-4.29-1-6.35,2.34-1.08,4-4.27,5.84-8.08,2.48-5.06,5.34-11.18,10.47-14.21-.28-1.12-.57-2.25-.85-3.36-6.1,3.73-9.38,10.73-12,15.94-1.37,2.78-2.6,5.18-3.89,6.27-.08-.76-.15-1.51-.21-2.27,0,0,0-.08,0-.13.26-2.09,6.2-11,11.92-19.56-.66-.72-1.32-1.42-2-2.1-1.48,2.23-7.15,10.57-10.38,16.12-.11-2-.17-4-.19-5.9C47.55,72.73,56,60.49,59.85,54.34c-.67-.68-1.34-1.35-2-2-5.36,8.43-11.63,16.84-14.63,19.57,0-.72,0-1.45,0-2.16,2.32-1.64,6.51-5.62,14.44-17.48-.66-.68-1.31-1.34-2-2-4.38,6.62-9.54,13.27-12.35,15.9.19-4,.54-7.79,1-11.46l.23-.06a7.06,7.06,0,0,0,1.71-.9C54.48,48.1,57.8,43,57.94,42.72c-.68-.61-1.36-1.21-2-1.79,0,.07-3,4.63-10.42,10a4.13,4.13,0,0,1-.68.4c.13-1,.28-1.93.43-2.87a3.5,3.5,0,0,0,.52-.17,5.39,5.39,0,0,0,1.48-.91A45.23,45.23,0,0,0,56.48,36.5c-.72-.52-1.44-1-2.16-1.48a42.15,42.15,0,0,1-8.11,9.65,1.47,1.47,0,0,1-.39.26c.26-1.43.52-2.83.8-4.18,3.3-2.78,7.12-9.06,7.6-9.86-.71-.49-1.42-.95-2.13-1.4a61.42,61.42,0,0,1-4.41,6.43c.47-2.05,1-4,1.42-5.73,1.75-1,3.72-3.17,6-6.77-.66-.53-1.33-1.05-2-1.54a29.41,29.41,0,0,1-2.77,3.78c1.32-4.47,2.32-7.16,2.36-7.27-.89,0-1.79-.06-2.68-.05,0,.11-1.16,3.12-2.59,8.06a11.5,11.5,0,0,1-1-5.21c-1,.61-2,1.25-3.05,1.9,0,.77.05,6.63,2.84,7.57-.52,1.94-1,4.08-1.56,6.35-1-2.63-2-8.44-2.57-14.73-1,.78-2,1.58-3,2.39,1.4,14.31,3.78,16.8,4.59,17.15-.11.54-.22,1.08-.32,1.63C41.8,41.11,40.52,36.91,40,34c-1,.78-2,1.57-3,2.37.22,1,2,9.17,5.56,11.55-.16,1-.31,1.95-.46,2.95C38.92,48.46,37,40.49,36.48,37.34c-1,.76-2,1.53-3,2.31.25,1.33,2.43,13.18,8,15.1l.07,0c-.08.58-.15,1.16-.22,1.75C37,56,31.11,50.67,29,49.06c-.83,1-1.67,2-2.5,2.95.92.36,8.15,7.38,14.55,7.84-.21,2.27-.38,4.59-.48,7-2.13-1.89-6-7-9.12-10.84-.85.87-1.69,1.73-2.54,2.58,2.47,2.63,8.06,10.63,11.53,12,0,.55,0,1.1,0,1.65C37.45,70,31.51,63.73,26.46,60.1l-2.34,2.67C28.79,65.69,36.34,74,40.41,75.9c0,3.07.19,6.22.45,9.48-4-2.61-15-10.55-15.48-12l-2.85,1.1C23,76.6,36.59,86.68,41.18,88.81l.09.8C36.6,87.56,25.85,79.42,18.54,77c-.63.76-1.26,1.49-1.89,2.21C20,80.47,35,90.3,41.68,93q.74,5.57,2,11.65c-2.73-1.18-12.22-13.39-20.1-20.12-.72.63-1.44,1.24-2.16,1.82,5.13,4.19,12.9,13.46,18.37,18.75-5.68-2.74-13.43-9.29-18.29-12.79-.62.58-1.25,1.15-1.88,1.69,1.68.54,14.41,13,23,15.21a6.93,6.93,0,0,0,2,.08q.91,4.23,1.8,8.17c-4.92-3.08-19.15-14.94-20.66-16.74-.79.35-1.57.68-2.36,1,2.23,2.71,18.6,16.91,23.86,19.42q1.41,6.11,2.74,11.42C41.17,127.46,28.35,110,28.22,110.4c-.66.45-1.33.87-2,1.27.49.87,14.72,20,24.77,24.72.43,1.64.86,3.24,1.27,4.75-11.1-6.73-23.3-24.89-23.42-24.51-.68.38-1.35.73-2,1.06.07.41,14,20.82,26.59,27.52,5.85,20.42,9.8,26.33,10,26.52.58-.7,1.17-1.41,1.75-2.13C65.12,169.57,63,166.36,59.47,156Z"/></svg>