<svg id="Layer_1" data-name="Layer 1" xmlns="http://www.w3.org/2000/svg" viewBox="0 0 190.06 190.06"><defs><style>.cls-1{fill:none;stroke:#231f20;stroke-miterlimit:10;}</style></defs><title>svg_individual_elements</title><path class="cls-1" d="M155.16,49.45a4.5,4.5,0,0,0-5.11,3.8l-1.5,10.25-4,3V42.39a4.5,4.5,0,0,0-9,0V80.1L124.25,98.92l-3.46,2.55,4.85-21.32,1.49-47.07a4.5,4.5,0,0,0-9-.28L116.67,79l-1.81,8L113.26,85V74.26a4.5,4.5,0,0,0-9,0v14l8.09,9.7-1.24,5.49L94.8,122.64l-2.21-17.08V85.92l2-6.08L107,64.32V42.39a4.5,4.5,0,0,0-9,0V61.18l-7,8.73-.5-2.9L89.05,21.88a4.5,4.5,0,1,0-9,.29l1.47,45.45,2.06,12v26.47l.09.63-2.82-4.25-8.1-19L71.34,63.19V32.94a4.5,4.5,0,0,0-9,0v30.4l1.54,22.32,9,21.15,11.68,17.58-13.33-7.16-15-25.17-2.28-31.4a4.5,4.5,0,1,0-9,.65l1.75,24L39.19,75a4.5,4.5,0,1,0-7.27,5.3l14.59,20,5.61,2.45L64.8,124,75,129.44s9.53,17.8,7,35.18,25.85,14.41,26.7,3c.64-8.74-9.07-24.63-10.13-35.44l7-8.27L131,105.1l13.5-22.51V77.05l2.59-1.3,9.79-7.25,2-14A4.49,4.49,0,0,0,155.16,49.45Z"/></svg>