<?xml version="1.0" encoding="utf-8"?>
<!-- Generator: Adobe Illustrator 22.0.1, SVG Export Plug-In . SVG Version: 6.00 Build 0)  -->
<svg version="1.1" id="Layer_1" xmlns="http://www.w3.org/2000/svg" xmlns:xlink="http://www.w3.org/1999/xlink" x="0px" y="0px"
	 viewBox="0 0 190.1 218.4" style="enable-background:new 0 0 190.1 218.4;" xml:space="preserve">
<style type="text/css">
	.st0{fill:#FFFFFF;stroke:#000000;stroke-miterlimit:10;}
</style>
<title>svg_individual_elements</title>
<path class="st0" d="M99.5,210.2c20.6,3.2,14.8-10.7,29.3-26.5s1.6-6.5,8.5-23.9s1.7-29.6,1.7-29.6c-12.8,13.8-5.8,20.2-9.7,29.5
	s-8.6,17.3-9.1,24.6c-0.1,2-3.3,4.9-7.3,8c-0.1-6.3-2.2-14-2.8-19.4c-1.2-9.3,6.4-11.9,5.4-19.1s11.1-14.5,11.1-24.9
	s9-10.7,6.7-19.4s4.9-17.7,5.8-31.2s-8.7-14.5-8.7-14.5C119,85.4,141,82.2,126,99.6s-2.9,18.8-10.1,25.5c-3.3,3-5.3,4.9-6.4,7
	c-1.2-5.2-4.7-7.2-3.9-11.6c1.2-6.5,8.4-4.9,6.6-23s4.8-6.7,5.8-20s4.6-13.7,0.7-24.2s3.4-5.1,0.6-14s1.1-23-3.8-26.7
	c-9-6.7-10.3-4.4-10.3-4.4s-4.4,4.9,0,15.4c1.7,4-0.9,9.6,0,15c0.7,3.9,2.2,8.2,1.9,12.1c-0.4,5.1-1.9,9.1-0.7,13.1
	C110,75,92.6,60.7,97.8,76s5.2,7.1-0.4,17.4s-3.7,15-2,27.9c1,7.8-4.7,5.5-8.3,13.7c0.4-8.5,1.3-18-0.9-21.8
	c-3.3-5.8,0.7-21.9,0.4-28.8s-8.2-17-4.9-31.7c2-9.6,2.3-19.5,0.9-29.2C71.4,41,78.6,37,73.5,52s1.8,9.8-1.6,22s3.6,26.1-1.3,40.2
	c-1.1,3-1.7,6.2-1.6,9.4c-1.9-1.6-3.4-3.3-3.7-5.2c-0.9-5.8-3.1-17.6-8.9-19.4s-1.3-11.8-5.1-14.7s0.7-9.2,0-14.5S46,56,46,56
	c-15.4,20.5-2,19.2-2.7,28.6s-0.7,4.2,2.7,13.6s-4.5,8.9,2.5,16.9s7.1,10.3,7.4,17.9c0.2,7.6,9.8,8,11.4,14
	c1.4,5.3,1.7,9.1,5.5,14.4c0.6,6.5,0.8,13,0.6,19.5c-6.2-1.8-11.5-5.7-11.6-11c-0.7-27.2-7.8-11.6-10.4-25.9
	c-3.5-19.5-9.5-23.9-9.5-23.9s-3.3,10.7-1.1,18.7s3.1,11.8,3.1,19.2s6.8,17.4,10.4,17.8s6.8,10.1,8.8,13.9s19.2,13.8,26.3,17.2
	C92.6,208.3,96,209.4,99.5,210.2z"/>
</svg>
