<svg id="Layer_1" data-name="Layer 1" xmlns="http://www.w3.org/2000/svg" viewBox="0 0 190.06 190.06"><defs><style>.cls-1{fill:none;stroke:#231f20;stroke-miterlimit:10;}</style></defs><title>svg_individual_elements</title><path class="cls-1" d="M147.65,64.58a2,2,0,0,0-2.79-.48A32.41,32.41,0,0,1,132.37,69a3.9,3.9,0,0,0-1-2.07c7.07-1.35,14.5-3.67,16.47-7.62a2,2,0,1,0-3.57-1.78c-1.51,3-11,5.28-19.86,6.42-.46-.08-.93-.15-1.42-.21,7.83-4.51,12.84-12.61,13.11-13a2,2,0,0,0-3.42-2.08,40.59,40.59,0,0,1-8.74,9.68c1.4-3.59,2.49-7.17,3.16-9.59a2,2,0,0,0-3.85-1.07A77,77,0,0,1,118,61.68a16.64,16.64,0,0,1-3,.82,1.93,1.93,0,0,0-.83.35c2.71-13.72,11.65-19.89,11.8-20a2,2,0,0,0-2.2-3.34c-.46.3-11.12,7.49-13.8,24l-1.34.09a16.68,16.68,0,0,1,.85-9.29c3.58-8.82-.16-17.22-.32-17.57a2,2,0,1,0-3.64,1.65c0,.07,3.19,7.18.25,14.41a20.43,20.43,0,0,0-1.13,11.15c-1,.1-2.07.22-3.13.35-.65-8.52.53-22.74.55-22.91A2,2,0,1,0,98,41c-.06.67-1.15,13.78-.6,22.72A20.16,20.16,0,0,1,96,58.23c-.54-3.29-1.12-6.91-3.2-9.58,1.67-6.83,3.55-12.47,3.59-12.58a2,2,0,0,0-3.8-1.27c-.14.41-1.67,5-3.19,10.94C85.45,42.1,88,33.06,88,32.9a2,2,0,1,0-3.83-1.15,27.74,27.74,0,0,0-1,7c-.26-.25-.44-.41-.48-.44a2,2,0,0,0-2.54,3.09s3.19,2.68,1.86,6c-.24.6-.46,1.19-.67,1.77-4.32-5.83-2.9-13-2.82-13.33A2,2,0,0,0,74.62,35c0,.13-2.25,11,5.31,18.62-1.67,6.19-1.46,10.56-.65,13.55-1.45-2-3.3-4.54-5.1-7C71.77,57,71.91,45.31,72.57,38.74a2,2,0,0,0-4-.4C68.4,40.24,66.85,57,71,62.59c1.73,2.35,3.52,4.8,4.94,6.76-.62.17-1.24.33-1.85.51-.59-2.75-1.83-6.13-4.49-8.16S66.31,53,66.36,50.79a2,2,0,0,0-2-2h0a2,2,0,0,0-2,2c0,1.06-.1,10.45,4.78,14.18,1.74,1.32,2.64,3.89,3.07,6.1-2.23.68-4.42,1.39-6.55,2.14-1.33-2.11-3.2-5.18-5.55-9.37-4.55-8.1,0-17.81.06-17.9a2,2,0,0,0-3.6-1.75c-.23.48-5.54,11.67.06,21.61,2.13,3.81,3.87,6.7,5.18,8.81-1.18.45-2.34.92-3.47,1.39-12.17-10.45-9-21.27-8.87-21.78a2,2,0,0,0-3.81-1.22c-.18.57-3.95,12.9,8.65,24.76l-1.63.78a8.56,8.56,0,0,0-2.84-1.89,6.75,6.75,0,0,0-1.35-.38C41.56,64.8,34,62.63,33.71,62.54a2,2,0,0,0-1.07,3.86c.25.07,5.62,1.74,9.68,10.28a11.69,11.69,0,0,0-2.51,1.4,33.5,33.5,0,0,1-18.94,6,2,2,0,0,0-.19,4,37,37,0,0,0,21.46-6.74,7.63,7.63,0,0,1,1.8-1c.24.48.48.93.72,1.36-.88.53-1.73,1.08-2.52,1.63-10.71,2.3-15.76,17.06-16,17.76a2,2,0,0,0,1.26,2.53,2,2,0,0,0,.64.1,2,2,0,0,0,1.89-1.36A35.32,35.32,0,0,1,36.3,91.45c-4,5.48-2.57,12.87-2.5,13.18a2,2,0,0,0,2,1.6,1.9,1.9,0,0,0,.41,0,2,2,0,0,0,1.55-2.36c0-.06-1.21-6.1,1.92-10.17A7.39,7.39,0,0,1,41,92.31c-2.55,5.42,2.74,13.35,3.36,14.25a2,2,0,0,0,1.65.86,2,2,0,0,0,1.64-3.13c-1.86-2.71-4.33-7.92-3-10.41.64-1.2,2.27-1.69,4-1.86,5.14,5,10.64,12.53,10.64,21.41,0,16.69-6.76,47.34,15.33,47.34s66.73-.9,66.73-16.68-14-23.44-14.88-38.32c-.83-13.67-7.74-12.13,1.64-27.53a3.62,3.62,0,0,1,2.1.66c1.69,1.23,2.43,4.3,2.16,8.87a2,2,0,0,0,1.87,2.12h.13a2,2,0,0,0,2-1.88c.37-6.11-.92-10.27-3.82-12.37a7.39,7.39,0,0,0-2.11-1c.18-.28.35-.55.55-.84s.26-.42.38-.62a35.46,35.46,0,0,0,15.88-5.77A2,2,0,0,0,147.65,64.58ZM83.58,67.45c-.83-1.94-1.49-5.39-.22-11.07.36.23.73.45,1.12.67a22.27,22.27,0,0,1,2.3,1.46,45.18,45.18,0,0,0-.51,8.35C85.38,67.05,84.48,67.24,83.58,67.45Zm6.66-1.39a32,32,0,0,1,.12-3.72,6.32,6.32,0,0,1,.59,1.5A5.44,5.44,0,0,1,91,65.91Zm1.63-8.4c-.25-.27-.51-.54-.79-.8.09-.55.19-1.09.3-1.65C91.57,56,91.73,56.83,91.87,57.66ZM88.2,49.8c.07,0,.12.1.19.15-.32,1.4-.62,2.82-.89,4.25-.35-.22-.7-.44-1.08-.65a18.68,18.68,0,0,1-1.92-1.24c.35-1.08.76-2.21,1.24-3.41A9.17,9.17,0,0,0,86,48,9.18,9.18,0,0,0,88.2,49.8Z"/></svg>