<svg id="Layer_1" data-name="Layer 1" xmlns="http://www.w3.org/2000/svg" viewBox="0 0 90.57 190.06"><defs><style>.cls-1{fill:none;stroke:#231f20;stroke-miterlimit:10;}</style></defs><title>svg_individual_elements</title><path class="cls-1" d="M58.22,158.08c-1-19.61,8.43-38.51,8.5-39.09-.78-.77-1.55-1.55-2.32-2.32-.35.92-7.7,15.8-9,32.61-.54-1.83-1.1-3.8-1.68-5.89-1.54-18.85,11.3-37.17,11.41-37.89l-2.05-2.61c-.48.91-10,15-12,30.51q-1.35-5.49-2.79-11.83c.4-1.87,5.73-8.57,10.55-14.93-.65-.91-1.31-1.82-2-2.71-2.94,3.83-7.24,9.17-9.64,12.91-.46-2.11-.93-4.3-1.4-6.53a42.85,42.85,0,0,0,7.4-6.58c3.8-4,7.39-8.3,9.79-7.66.17-1.23.34-2.47.52-3.71-3.72-.92-7.62,3.82-12.13,8.6a47.35,47.35,0,0,1-6.22,5.76c1-6.35,13-21.27,17.72-27.61-.59-.9-1.19-1.78-1.78-2.66-1.56,2.09-12.74,16.07-17.06,24.73-.37-2.16-.69-4.29-1-6.35,2.34-1.08,4-4.27,5.85-8.08,2.48-5.06,5.33-11.18,10.47-14.21-.29-1.13-.58-2.25-.86-3.36-6.1,3.73-9.38,10.73-12,15.94-1.38,2.78-2.61,5.18-3.89,6.27-.08-.76-.15-1.52-.22-2.27a.59.59,0,0,0,0-.13c.26-2.09,6.2-11,11.93-19.56-.67-.72-1.33-1.42-2-2.1-1.49,2.23-7.16,10.57-10.38,16.12-.11-2-.17-4-.2-5.9C46.3,74.84,54.72,62.6,58.6,56.45l-2-2C51.23,62.88,45,71.29,42,74c0-.72,0-1.45,0-2.16,2.32-1.65,6.51-5.62,14.44-17.48-.65-.68-1.31-1.35-2-2C50.08,59,44.92,65.66,42.12,68.29c.19-4,.53-7.79,1-11.46l.23-.06a7.06,7.06,0,0,0,1.71-.9c8.19-5.67,11.51-10.79,11.65-11-.68-.61-1.35-1.21-2-1.79,0,.07-3,4.63-10.42,10a4.45,4.45,0,0,1-.68.4c.14-1,.28-1.93.43-2.87a3.5,3.5,0,0,0,.52-.17A5.43,5.43,0,0,0,46,49.46,45.08,45.08,0,0,0,55.23,38.6q-1.08-.76-2.16-1.47A42,42,0,0,1,45,46.78a1.88,1.88,0,0,1-.39.26c.25-1.43.52-2.83.79-4.18,3.3-2.79,7.12-9.06,7.6-9.86-.71-.49-1.42-1-2.13-1.4A59.92,59.92,0,0,1,46.43,38q.72-3.09,1.43-5.73c1.74-1,3.72-3.17,6-6.77-.66-.53-1.33-1.05-2-1.54a31.45,31.45,0,0,1-2.77,3.78c1.31-4.47,2.31-7.16,2.35-7.27-.89,0-1.78-.06-2.68-.06,0,.12-1.15,3.13-2.59,8.07a11.79,11.79,0,0,1-1-5.22c-1,.62-2,1.26-3.05,1.91,0,.77.06,6.63,2.84,7.57-.51,1.94-1,4.07-1.56,6.35-1-2.63-2-8.44-2.56-14.73-1,.78-2,1.57-3,2.39,1.39,14.31,3.78,16.8,4.58,17.15-.11.54-.22,1.08-.32,1.63-1.57-2.34-2.85-6.54-3.42-9.41q-1.47,1.17-2.94,2.37c.22,1,2,9.17,5.55,11.55-.16,1-.31,2-.46,3-3.18-2.45-5.11-10.42-5.62-13.57-1,.76-2,1.53-3,2.31.25,1.33,2.43,13.18,8,15.1l.06,0c-.07.58-.15,1.15-.22,1.74-4.41-.52-10.25-5.84-12.39-7.45-.83,1-1.66,2-2.49,2.95.91.36,8.14,7.38,14.54,7.84q-.32,3.41-.48,7c-2.13-1.89-6-7-9.12-10.84-.84.87-1.69,1.73-2.54,2.58,2.47,2.63,8.06,10.63,11.53,12,0,.54,0,1.1,0,1.65-2.95-2.25-8.89-8.49-13.93-12.12l-2.35,2.67C27.55,67.8,35.1,76.08,39.16,78c.05,3.07.19,6.22.45,9.48-4-2.61-15-10.55-15.47-12l-2.86,1.1c.43,2.1,14.06,12.18,18.66,14.31,0,.27.05.53.08.8-4.67-2-15.42-10.19-22.72-12.62-.63.76-1.27,1.49-1.9,2.21,3.34,1.27,18.39,11.1,25,13.77q.74,5.57,2,11.65c-2.74-1.18-12.22-13.4-20.11-20.12-.72.63-1.43,1.24-2.15,1.82,5.12,4.19,12.89,13.45,18.36,18.74-5.67-2.73-13.42-9.28-18.28-12.78-.63.58-1.26,1.15-1.89,1.69,1.69.54,14.42,13,23,15.21a6.86,6.86,0,0,0,2,.08c.61,2.81,1.21,5.54,1.8,8.16C40.27,116.46,26,104.6,24.53,102.79c-.79.36-1.58.69-2.37,1,2.23,2.71,18.6,16.91,23.86,19.42q1.41,6.11,2.75,11.42c-8.85-5.06-21.66-22.53-21.8-22.12-.66.45-1.32.87-2,1.27.49.87,14.72,19.95,24.78,24.72.42,1.64.85,3.24,1.26,4.75-11.1-6.73-23.3-24.89-23.42-24.51-.67.38-1.35.73-2,1.06.07.41,14,20.82,26.59,27.51,5.85,20.43,9.8,26.33,10,26.53.59-.7,1.17-1.41,1.75-2.13C63.88,171.68,61.75,168.47,58.22,158.08Z"/></svg>