<?xml version="1.0" encoding="utf-8"?>
<!-- Generator: Adobe Illustrator 22.0.1, SVG Export Plug-In . SVG Version: 6.00 Build 0)  -->
<svg version="1.1" id="Layer_1" xmlns="http://www.w3.org/2000/svg" xmlns:xlink="http://www.w3.org/1999/xlink" x="0px" y="0px"
	 viewBox="0 0 130.5 130.5" style="enable-background:new 0 0 130.5 130.5;" xml:space="preserve">
<style type="text/css">
	.st0{fill:#FFFFFF;stroke:#000000;stroke-miterlimit:10;}
</style>
<title>svg_individual_elements</title>
<path class="st0" d="M23.2,59.8c0,0,5.3-0.6,11.9-12.3s34.4-25,44.1-25.2c0,0-16.8,8.4-11.1,12.3c4.3,2.9,8.8,5.4,13.5,7.6
	c5.7,2.9,4.4,10.4,2.2,13.4c-1.4,2-8.1,6.6-4.2,8.9s7.2-6.2,10.6-4.1s1.4,22.3-2.2,22.3s-5.1-10.9-7.4-8s-2.4,12.1,1.3,14
	s-1.6,4.7-12.1,1s-17-6.4-17-6.4s7.2,6.8,2,11.1s-14-9.4-14.6-15.3c0,0-13.3-16-17-16.2l1.9-2.1L23.2,59.8z"/>
</svg>
