<svg id="Layer_1" data-name="Layer 1" xmlns="http://www.w3.org/2000/svg" viewBox="0 0 27.92 30.87"><defs><style>.cls-1{fill:#fff;}.cls-2{fill:#ca5e31;}</style></defs><title>heart</title><path class="cls-1" d="M25,9.56a14,14,0,0,0-9.37,24.31L14,40.44l5.71-4A14,14,0,1,0,25,9.56Z" transform="translate(-11.04 -9.56)"/><path class="cls-2" d="M25,30.06l-2.24-1.61c-.1-.07-1-.74-2-1.59-1.45-1.3-2.93-2.92-2.93-5.07A3.84,3.84,0,0,1,25,19.84a3.84,3.84,0,0,1,7.13,2c0,2.16-1.49,3.77-2.94,5.06a24.51,24.51,0,0,1-2,1.58Z" transform="translate(-11.04 -9.56)"/></svg>